<svg width="144" height="42" viewBox="0 0 144 42" fill="none" xmlns="http://www.w3.org/2000/svg">
<path d="M0 10.3235V25.5573C0 25.6752 0.0445041 25.7872 0.122386 25.8697L12.7421 39.1264C12.9062 39.2973 13.1704 39.2973 13.3318 39.1205L21.5873 30.1511C21.7625 29.9595 21.7375 29.6531 21.54 29.491C20.7333 28.8398 18.7307 27.561 17.0979 29.3172C15.4846 31.0468 13.9548 32.7234 13.3318 33.4071C13.1704 33.5838 12.9034 33.5838 12.7393 33.41L5.71043 25.9551C5.5491 25.7842 5.5491 25.5072 5.70765 25.3334L7.51563 23.3945C7.67696 23.2236 7.93564 23.2207 8.09974 23.3886L12.7421 28.1503C12.9062 28.3183 13.1676 28.3153 13.329 28.1415L15.2927 26.0199C15.4513 25.8461 15.4513 25.5691 15.2899 25.4012L0.709284 10.0111C0.447822 9.73708 0 9.93155 0 10.3235Z" fill="#B9FD50"/>
<path d="M13.4013 1.00929C13.2372 0.838384 12.9729 0.838382 12.8116 1.01518L4.55611 9.98461C4.38087 10.1761 4.40591 10.4826 4.60339 10.6446C5.41003 11.2958 7.41271 12.5717 9.04824 10.8185C9.62123 10.2027 10.1831 9.59564 10.6977 9.03579C11.2095 8.48183 11.674 7.97502 12.055 7.55955C12.3721 7.2148 12.6308 6.92898 12.8144 6.72862C12.9757 6.55182 13.2428 6.54888 13.4069 6.72272L20.7306 14.4899L18.6333 16.7382C18.472 16.9091 18.2133 16.912 18.0492 16.7441L13.4069 11.9824C13.2428 11.8144 12.9813 11.8174 12.8227 11.9912L11.7407 13.1581L10.859 14.1128C10.7005 14.2866 10.7005 14.5636 10.8618 14.7345L10.9007 14.7758L25.4397 30.1246C25.7011 30.4015 26.1489 30.2041 26.1489 29.8122V14.3986L13.4013 1.00929Z" fill="#B9FD50"/>
<path d="M40.432 7.55956H22.7527C22.469 7.55956 22.3272 7.92493 22.5302 8.13709L27.3144 13.164H40.432C40.6573 13.164 40.8409 12.9695 40.8409 12.7308V7.98976C40.8409 7.75403 40.6573 7.55956 40.432 7.55956ZM34.2264 11.3872H33.5172V9.41001H34.2264V11.3872ZM35.2778 11.3872H34.5686V9.41001H35.2778V11.3872ZM36.3265 11.3872H35.62V9.41001H36.3265V11.3872ZM38.3097 11.5758C37.6783 11.5758 37.1665 11.0336 37.1665 10.3618C37.1665 9.68994 37.6783 9.14777 38.3097 9.14777C38.9439 9.14777 39.4584 9.68994 39.4584 10.3618C39.4584 11.0336 38.9439 11.5758 38.3097 11.5758Z" fill="#B9FD50"/>
<path d="M40.432 14.7139H27.7733V20.3183H40.4292C40.6545 20.3183 40.8381 20.1238 40.8381 19.8851V15.147C40.8409 14.9084 40.6573 14.7139 40.432 14.7139ZM34.2236 18.5444H33.5171V16.5673H34.2236V18.5444ZM35.2751 18.5444H34.5658V16.5673H35.2751V18.5444ZM36.3265 18.5444H35.62V16.5673H36.3265V18.5444ZM38.3097 18.7301C37.6755 18.7301 37.1665 18.1879 37.1665 17.5161C37.1665 16.8443 37.6783 16.3021 38.3097 16.3021C38.9439 16.3021 39.4557 16.8443 39.4557 17.5161C39.4557 18.1879 38.9439 18.7301 38.3097 18.7301Z" fill="#B9FD50"/>
<path d="M40.432 21.8711H27.7733V27.4755H40.432C40.6573 27.4755 40.8409 27.281 40.8409 27.0423V22.3042C40.8409 22.0655 40.6573 21.8711 40.432 21.8711ZM34.2236 25.7016H33.5171V23.7215H34.2236V25.7016ZM35.2751 25.7016H34.5658V23.7215H35.2751V25.7016ZM36.3265 25.7016H35.62V23.7215H36.3265V25.7016ZM38.3097 25.8873C37.6755 25.8873 37.1665 25.3451 37.1665 24.6733C37.1665 24.0044 37.6783 23.4593 38.3097 23.4593C38.9439 23.4593 39.4557 24.0015 39.4557 24.6733C39.4557 25.3451 38.9439 25.8873 38.3097 25.8873Z" fill="#B9FD50"/>
<path d="M31.3698 32.1547H31.4366V32.084C31.4143 32.1075 31.3921 32.1311 31.3698 32.1547Z" fill="#B9FD50"/>
<path d="M31.3698 32.1547C30.9192 32.6143 30.3073 32.9002 29.6314 32.9002C28.9193 32.9002 28.2796 32.5878 27.8206 32.084V37.6324C27.8206 38.6814 28.6328 39.5329 29.6314 39.5329C30.6272 39.5329 31.4366 38.6814 31.4366 37.6324V32.1547H31.3698Z" fill="#B9FD50"/>
<path d="M39.0913 28.3241H31.3698C31.8427 28.8073 32.1403 29.485 32.1403 30.2364C32.1403 30.9554 31.8705 31.6037 31.4366 32.084V32.1547L33.8927 32.1546V37.6323C33.8927 38.6813 34.7048 39.5329 35.7034 39.5329C36.702 39.5329 37.5086 38.6813 37.5086 37.6323V32.1546H39.0913C40.0843 32.1546 40.8854 31.2972 40.8854 30.2364C40.8854 29.1815 40.0843 28.3241 39.0913 28.3241Z" fill="#B9FD50"/>
<path d="M31.2975 30.1923C31.2975 31.2236 30.5103 32.0574 29.5368 32.0574C28.5633 32.0574 27.7733 31.2236 27.7733 30.1923C27.7733 29.1609 28.5633 28.3212 29.5368 28.3212C30.5103 28.3212 31.2975 29.158 31.2975 30.1923Z" fill="#B9FD50"/>
<path d="M40.8158 40.6998C40.8158 40.9326 40.6378 41.1182 40.4208 41.1182H0.394974C0.178016 41.1182 0 40.9326 0 40.6998C0 40.47 0.178016 40.2814 0.394974 40.2814H40.4208C40.6378 40.2814 40.8158 40.467 40.8158 40.6998Z" fill="#B9FD50"/>
<path d="M55.1825 8.77759V12.93C54.8858 12.8235 54.6536 12.7702 54.494 12.7702C54.1834 12.7702 53.9147 12.8915 53.6937 13.134C53.4698 13.3765 53.3578 13.6664 53.3578 14.0065C53.3578 14.2993 53.481 14.669 53.7216 15.1185L54.0351 15.6952C54.6032 16.7333 54.8858 17.7359 54.8858 18.703C54.8858 20.1167 54.4073 21.3175 53.453 22.2994C52.4987 23.2813 51.3317 23.7693 49.9548 23.7693C49.2916 23.7693 48.6367 23.6096 47.9903 23.2902V19.0757C48.3821 19.3389 48.7291 19.469 49.0341 19.469C49.3923 19.469 49.6918 19.3596 49.9296 19.1437C50.1703 18.9249 50.2906 18.6557 50.2906 18.3274C50.2906 18.1115 50.0975 17.6472 49.7142 16.9285C49.0985 15.7899 48.7934 14.6512 48.7934 13.5126C48.7934 12.1403 49.258 10.9573 50.1871 9.96355C51.1162 8.97278 52.2244 8.47592 53.5146 8.47592C54.0771 8.47888 54.634 8.57943 55.1825 8.77759Z" fill="#B9FD50"/>
<path d="M61.6751 16.482C61.2693 16.482 60.925 16.6358 60.6424 16.9464C60.3597 17.2539 60.217 17.6325 60.217 18.082C60.217 18.5198 60.3597 18.8983 60.648 19.2118C60.9334 19.5253 61.2777 19.6791 61.6751 19.6791C62.0808 19.6791 62.4278 19.5224 62.7133 19.2118C63.0015 18.8983 63.1443 18.5198 63.1443 18.082C63.1443 17.6325 63.0016 17.2539 62.7189 16.9464C62.4335 16.6358 62.0864 16.482 61.6751 16.482ZM61.7786 12.5456C63.2114 12.5456 64.4372 13.0868 65.4587 14.1722C66.4829 15.2576 66.9922 16.556 66.9922 18.0732C66.9922 19.6111 66.4745 20.9183 65.4391 22.0008C64.4036 23.0803 63.1499 23.6215 61.6862 23.6215C60.2226 23.6215 58.9689 23.0773 57.9278 21.9949C56.8896 20.9094 56.3663 19.6022 56.3663 18.0732C56.3663 16.5146 56.8868 15.2044 57.9278 14.1426C58.9661 13.0779 60.2506 12.5456 61.7786 12.5456Z" fill="#B9FD50"/>
<path d="M74.0557 15.1275V19.3124H72.3654V23.4056H68.5734V14.3704C68.5734 13.353 68.7385 12.4864 69.0687 11.7677C69.4857 10.8509 70.1238 10.1026 70.9773 9.52002C71.8309 8.9433 72.7208 8.6505 73.6471 8.6505L74.0529 8.66529V12.8443C73.9662 12.8384 73.9018 12.8354 73.8598 12.8354C73.3813 12.8354 73.0119 13.004 72.7516 13.3382C72.4913 13.6724 72.3626 14.1485 72.3626 14.7667V15.1304H74.0557V15.1275Z" fill="#B9FD50"/>
<path d="M79.0903 8.83971V12.9152H80.7918V17.1296H79.0903C79.0903 17.9755 79.2162 18.5581 79.4709 18.8805C79.7255 19.1999 80.1873 19.3596 80.8645 19.3596V23.5534C80.6686 23.5593 80.5231 23.5623 80.4307 23.5623C79.5716 23.5623 78.7628 23.3552 78.0044 22.9353C77.246 22.5153 76.6359 21.9475 76.177 21.2288C75.5949 20.3119 75.3067 19.0934 75.3067 17.5821V8.83971H79.0903Z" fill="#B9FD50"/>
<path d="M98.1958 23.4055H94.082V8.83971H98.1958V23.4055ZM93.3823 14.0479V17.8897H92.2377V23.4055H88.1239V8.83971H92.2377V14.0479H93.3823Z" fill="#B9FD50"/>
<path d="M105.366 16.482C104.96 16.482 104.616 16.6358 104.333 16.9464C104.05 17.2539 103.908 17.6325 103.908 18.082C103.908 18.5198 104.05 18.8983 104.339 19.2118C104.627 19.5253 104.968 19.6791 105.366 19.6791C105.771 19.6791 106.116 19.5224 106.407 19.2118C106.692 18.8983 106.835 18.5198 106.835 18.082C106.835 17.6325 106.692 17.2539 106.409 16.9464C106.127 16.6358 105.78 16.482 105.366 16.482ZM105.469 12.5456C106.902 12.5456 108.128 13.0868 109.152 14.1722C110.176 15.2576 110.686 16.556 110.686 18.0732C110.686 19.6111 110.168 20.9183 109.132 22.0008C108.094 23.0803 106.843 23.6215 105.377 23.6215C103.913 23.6215 102.659 23.0773 101.618 21.9949C100.577 20.9094 100.06 19.6022 100.06 18.0732C100.06 16.5146 100.58 15.2044 101.618 14.1426C102.659 13.0779 103.941 12.5456 105.469 12.5456Z" fill="#B9FD50"/>
<path d="M118.597 17.1239C118.063 17.1239 117.696 17.2274 117.497 17.4403C117.299 17.6503 117.173 18.0643 117.119 18.6825C116.943 20.7379 116.187 22.1901 114.847 23.0359C114.139 23.4766 113.132 23.6984 111.827 23.6984H111.301V19.4692H111.475C112.082 19.4692 112.516 19.3361 112.776 19.0699C113.036 18.8037 113.187 18.3364 113.227 17.6651C113.28 16.5767 113.375 15.8137 113.515 15.373C113.652 14.9323 113.935 14.4946 114.363 14.0599C115.104 13.2998 116.134 12.9153 117.452 12.9153H118.597V17.1239Z" fill="#B9FD50"/>
<path d="M123.209 8.83971V12.9152H124.908V17.1296H123.206C123.206 17.9755 123.332 18.5581 123.584 18.8805C123.839 19.1999 124.3 19.3596 124.978 19.3596V23.5534C124.782 23.5593 124.636 23.5623 124.541 23.5623C123.685 23.5623 122.876 23.3552 122.115 22.9353C121.354 22.5153 120.743 21.9475 120.285 21.2288C119.705 20.3119 119.414 19.0934 119.414 17.5821V8.83971H123.209Z" fill="#B9FD50"/>
<path d="M133.863 8.02051C134.375 8.02051 134.82 8.20979 135.192 8.59131C135.567 8.97283 135.755 9.42237 135.755 9.9429C135.755 10.496 135.578 10.9514 135.223 11.3063C134.87 11.6612 134.414 11.8416 133.86 11.8416C133.306 11.8416 132.853 11.6612 132.497 11.3063C132.142 10.9514 131.966 10.496 131.966 9.9429C131.966 9.42237 132.153 8.97283 132.528 8.59131C132.906 8.20979 133.348 8.02051 133.863 8.02051ZM135.749 23.4056H131.96V12.7703H135.749V23.4056Z" fill="#B9FD50"/>
<path d="M141.349 8.83971V12.9152H143.051V17.1296H141.349C141.349 17.9755 141.475 18.5581 141.727 18.8805C141.981 19.1999 142.443 19.3596 143.12 19.3596V23.5534C142.925 23.5593 142.779 23.5623 142.687 23.5623C141.83 23.5623 141.019 23.3552 140.26 22.9353C139.502 22.5153 138.892 21.9475 138.433 21.2288C137.851 20.3119 137.563 19.0934 137.563 17.5821V8.83971H141.349Z" fill="#B9FD50"/>
<path d="M56.6741 31.1513C56.6741 31.6009 56.411 32.0297 55.8849 32.4349C55.3588 32.8401 54.8103 33.1358 54.2366 33.3221C53.6629 33.5085 53.022 33.6623 52.3168 33.7776C51.6116 33.8929 51.2589 34.0024 51.2589 34.1029C51.2589 34.1857 51.6367 34.2981 52.3895 34.4401C53.1423 34.582 53.7776 34.7565 54.2925 34.9665C54.8075 35.1735 55.0649 35.493 55.0649 35.9159C55.0649 36.4571 54.5276 37.0309 53.453 37.6372C52.3783 38.2405 51.3513 38.5451 50.3746 38.5451C49.7925 38.5451 49.258 38.415 48.7683 38.1577C48.2785 37.9004 48.035 37.5514 48.035 37.1196C48.035 36.7943 48.1554 36.4246 48.3961 36.0046C48.6619 35.5965 48.9306 35.1883 49.1964 34.7772C49.188 34.7358 49.0677 34.653 48.8382 34.5259C48.6087 34.4016 48.4828 34.2952 48.4548 34.2124C48.3653 33.955 48.6927 33.7628 49.4371 33.6356C50.1815 33.5114 50.6405 33.3251 50.8112 33.0796C50.9819 32.8341 51.2813 32.5473 51.7067 32.2219C52.1321 31.8966 52.4399 31.7251 52.6274 31.7014C52.8149 31.6807 52.9241 31.6689 52.9492 31.6689C53.1004 31.6689 53.1787 31.7073 53.1787 31.7813C53.1787 31.873 53.0192 32.08 52.7002 32.3994C52.3811 32.7188 52.2132 32.9377 52.1964 33.053C52.188 33.1122 52.2496 33.1417 52.3839 33.1417C52.8149 33.1417 53.4502 32.9672 54.2953 32.6212C55.1377 32.2752 55.5603 31.9558 55.5603 31.663C55.5435 31.4382 55.4148 31.2667 55.1769 31.1484C54.939 31.0301 54.5696 30.9739 54.0659 30.9739C53.7076 30.9739 53.0024 31.0774 51.953 31.2874C50.9035 31.4973 50.3886 31.6925 50.4054 31.8759C50.4054 31.9765 50.3186 32.0652 50.1423 32.145C49.966 32.2249 49.633 32.3195 49.1405 32.426C48.953 32.4852 48.7543 32.5443 48.5472 32.6094C48.3401 32.6715 48.1694 32.704 48.035 32.704C47.8112 32.704 47.6992 32.6242 47.6992 32.4674C47.6992 32.3432 47.7832 32.1421 47.9539 31.8611C48.1246 31.5831 48.3345 31.2992 48.5808 31.0123C48.827 30.7254 49.5742 30.4119 50.8224 30.0748C52.0705 29.7376 53.1283 29.569 53.9987 29.569C54.841 29.569 55.4987 29.708 55.9633 29.9831C56.439 30.2641 56.6741 30.6515 56.6741 31.1513ZM53.7216 35.6763C53.7216 35.4249 53.3858 35.2297 52.7142 35.0967C52.0425 34.9606 51.3653 34.8512 50.6852 34.7684C50.425 35.0138 50.1675 35.283 49.9129 35.5758C49.6582 35.8715 49.5435 36.1554 49.5714 36.4335C49.5714 36.7115 49.7309 36.883 50.0472 36.9451C50.3662 37.0072 50.7608 37.0397 51.2366 37.0397C51.6563 37.0397 52.1769 36.8771 52.7953 36.5547C53.411 36.2323 53.7216 35.9395 53.7216 35.6763Z" fill="#B9FD50"/>
<path d="M60.8803 36.6996C60.8803 36.8091 60.5249 37.1669 59.8112 37.7703C59.0976 38.3766 58.5491 38.6782 58.1629 38.6782C57.9306 38.6782 57.7375 38.5688 57.5836 38.347C57.4325 38.1281 57.3541 37.8767 57.3541 37.5928C57.3541 37.2527 57.4605 36.8948 57.676 36.5222C57.9166 36.1821 58.1629 35.8419 58.4148 35.5018C58.4148 35.4604 58.3532 35.4397 58.2273 35.4397C58.0286 35.4397 57.7655 35.4782 57.4325 35.5521C57.0995 35.6261 56.8952 35.7384 56.8196 35.8922C56.7441 36.046 56.5873 36.1939 56.355 36.3447C56.1228 36.4926 55.9185 36.6198 55.7506 36.7292V36.2797C55.8401 36.2294 55.9101 36.1702 55.9605 36.0993C56.0108 36.0283 56.0332 35.9484 56.0332 35.8567C56.0332 35.7976 56.0052 35.7355 55.9465 35.6645C55.8877 35.5935 55.8597 35.5344 55.8597 35.4841C55.8597 35.07 56.0696 34.6442 56.4922 34.2064C56.9148 33.7717 57.259 33.5528 57.5276 33.5528C57.6004 33.5528 57.6452 33.612 57.6676 33.7362C57.6899 33.8575 57.7179 33.9462 57.7487 33.9994C57.7795 34.0527 57.8774 34.0822 58.037 34.0822C58.1713 34.0822 58.4176 34.0438 58.7786 33.9639C59.1368 33.887 59.3803 33.8456 59.5062 33.8456C59.5342 33.8456 59.5594 33.8456 59.5873 33.8456C59.6237 33.8634 59.6797 33.8841 59.7553 33.9077C59.8308 33.9314 59.9176 34.0734 60.0099 34.3277C60.1051 34.582 60.1275 34.7477 60.0827 34.8216C59.8756 35.005 59.6769 35.2002 59.4866 35.4102C59.2935 35.6201 59.1312 35.839 58.9969 36.0726C58.8625 36.3063 58.7646 36.5015 58.703 36.6553C58.6414 36.8091 58.6079 36.9481 58.6079 37.0752C58.6079 37.1935 58.6442 37.2852 58.7142 37.3503C58.787 37.4183 58.9017 37.4508 59.064 37.4508C59.2963 37.4508 59.5818 37.3148 59.9232 37.0457C60.2646 36.7765 60.5808 36.5015 60.8775 36.2235V36.6996H60.8803Z" fill="#B9FD50"/>
<path d="M64.703 36.7292C64.2273 37.1847 63.7236 37.6401 63.1891 38.0956C62.6545 38.551 62.232 38.7788 61.9185 38.7788C61.8821 38.7788 61.7534 38.7285 61.5267 38.6309C61.3028 38.5303 61.1069 38.3174 60.9418 37.9891C60.7767 37.6608 60.6928 37.2556 60.6928 36.7736C60.6928 36.3832 60.995 35.7798 61.6023 34.9606C62.2068 34.1414 62.6013 33.7214 62.7805 33.6977C62.9596 33.6741 63.0799 33.6593 63.1359 33.6534C63.1946 33.6504 63.259 33.6475 63.3318 33.6475C63.4829 33.6475 63.5892 33.6682 63.648 33.7096C63.7068 33.751 63.7432 33.8101 63.7627 33.8841C63.8243 34.1236 63.7012 34.4756 63.3877 34.934C63.0743 35.3954 62.7861 35.7148 62.523 35.8981C62.2599 36.0815 62.1004 36.2412 62.0472 36.3832C61.9941 36.5251 61.9661 36.676 61.9661 36.8446C61.9661 37.0338 62.0053 37.1995 62.0808 37.3355C62.1564 37.4715 62.2739 37.5455 62.4362 37.5544C62.8196 37.5544 63.2114 37.4154 63.6116 37.1373C64.009 36.8593 64.3756 36.5754 64.7058 36.2885V36.7292H64.703ZM64.8122 31.5269C64.9297 31.592 64.9885 31.7103 64.9885 31.8759C64.9885 31.9824 64.9633 32.0948 64.9129 32.2131C64.8626 32.3284 64.7926 32.4556 64.703 32.5916C64.6135 32.7277 64.4848 32.8578 64.3196 32.9761C64.1545 33.0974 63.995 33.1565 63.8411 33.1565C63.7795 33.1565 63.6928 33.1299 63.5836 33.0767C63.4773 33.0234 63.4213 32.8992 63.4213 32.7099C63.4213 32.6035 63.4437 32.4911 63.4885 32.3728C63.5333 32.2574 63.5976 32.1332 63.6844 32.006C63.7683 31.8789 63.8999 31.7547 64.0734 31.6393C64.2497 31.524 64.4176 31.4648 64.5771 31.4648C64.6639 31.4648 64.7394 31.4855 64.8122 31.5269Z" fill="#B9FD50"/>
<path d="M71.3076 36.7292C71.3076 36.8298 70.8318 37.2172 69.8803 37.8974C68.9288 38.5747 68.2907 38.9148 67.9689 38.9148C67.6919 38.9148 67.4876 38.8261 67.3644 38.6486C67.2385 38.4712 67.177 38.2375 67.177 37.9447C67.177 37.6963 67.3253 37.3296 67.6191 36.8446C67.9129 36.3595 68.0445 36.1022 68.0081 36.0667C67.9633 36.0164 67.7814 36.1495 67.4652 36.466C67.1462 36.7824 66.9307 36.9954 66.8131 37.1078C66.6956 37.2202 66.4577 37.4893 66.0939 37.9181C65.7301 38.347 65.4251 38.5422 65.1732 38.5096C64.9857 38.4919 64.843 38.3144 64.7422 37.9773C64.6443 37.6401 64.5939 37.2734 64.5939 36.883C64.5939 36.3595 64.8262 35.7976 65.2879 35.1972C65.7497 34.5998 66.0659 34.2715 66.2366 34.2183C66.4074 34.165 66.5921 34.1355 66.7879 34.1355C66.9307 34.1355 67.037 34.1414 67.1042 34.1532C67.1714 34.165 67.2329 34.1917 67.2861 34.2271C67.3393 34.2656 67.3672 34.3129 67.3672 34.3691C67.3672 34.5347 67.1042 34.9044 66.5809 35.4723C66.0547 36.0431 65.7945 36.4009 65.7945 36.5518C65.7945 36.602 65.8113 36.6405 65.8477 36.6641C65.9204 36.7144 66.1667 36.5251 66.5948 36.0963C67.0202 35.6675 67.3896 35.3244 67.6975 35.0612C68.0081 34.8009 68.4167 34.517 68.9288 34.2124C69.4409 33.9077 69.7992 33.7569 70.0063 33.7569C70.0958 33.7569 70.1854 33.8367 70.2749 33.9935C70.3645 34.1532 70.4092 34.3218 70.4092 34.5051C70.4092 34.6146 70.3896 34.7063 70.3477 34.7802C70.3085 34.8541 70.1042 35.1085 69.7348 35.5373C69.3682 35.9662 69.1303 36.2767 69.0268 36.463C68.9232 36.6494 68.8561 36.7913 68.8253 36.8889C68.7945 36.9836 68.7777 37.0782 68.7777 37.1699C68.7777 37.3355 68.8533 37.4213 69.0072 37.4213C69.259 37.4213 69.6033 37.2941 70.0426 37.0397C70.482 36.7854 70.9018 36.5281 71.3076 36.2708V36.7292Z" fill="#B9FD50"/>
<path d="M77.4783 36.7351C76.8234 37.1492 76.191 37.5544 75.5809 37.9507C74.9708 38.344 74.5958 38.5895 74.4559 38.6782C74.316 38.7699 74.2124 38.9326 74.1453 39.1692C74.0781 39.4058 73.913 39.666 73.6527 39.947C73.3925 40.228 73.0986 40.4941 72.7712 40.7455C72.4438 40.994 72.1947 41.1182 72.024 41.1182C71.9428 41.1182 71.8785 41.0945 71.8281 41.0442C71.7777 40.994 71.7553 40.9111 71.7553 40.7958C71.7553 40.5977 71.8533 40.3551 72.052 40.0683C72.2479 39.7814 72.4158 39.5536 72.5501 39.3851C72.6844 39.2135 72.8943 39.0331 73.177 38.8379C73.4596 38.6427 73.6359 38.4978 73.7087 38.4032C73.7815 38.3085 73.913 38.0631 74.1061 37.6697C74.2992 37.2764 74.3719 37.0634 74.3272 37.0279C74.3104 37.019 74.0305 37.2261 73.4932 37.646C72.9559 38.066 72.5333 38.276 72.2311 38.276C72.1695 38.276 72.0716 38.2642 71.9428 38.2375C71.8141 38.2139 71.6434 38.0335 71.4335 37.6993C71.2236 37.3651 71.1173 37.0723 71.1173 36.8238C71.1173 36.2146 71.579 35.561 72.5025 34.863C73.426 34.165 74.2376 33.7628 74.9372 33.6534C75.108 33.6356 75.2675 33.68 75.4158 33.7865C75.5641 33.89 75.6117 34.0024 75.5557 34.1177C75.4578 34.3425 75.0072 34.6412 74.2096 35.0138C73.412 35.3865 72.8999 35.6941 72.676 35.9366C72.4522 36.1791 72.3094 36.3536 72.2451 36.463C72.1835 36.5725 72.1499 36.6878 72.1499 36.815C72.1499 36.9333 72.1807 37.0368 72.2451 37.1285C72.2899 37.229 72.3794 37.2793 72.5137 37.2793C72.6761 37.2793 72.8803 37.1965 73.1322 37.0279C73.3841 36.8623 73.7143 36.5754 74.1285 36.1762C74.5427 35.6822 74.8869 35.2711 75.1639 34.9429C75.441 34.6116 75.6649 34.4844 75.8356 34.5613C76.0147 34.6353 76.1042 34.8068 76.1042 35.076C76.1042 35.4013 75.8971 35.9898 75.4858 36.8416C75.4242 37.0072 75.3654 37.1758 75.3094 37.3414C75.3822 37.3414 75.6453 37.2231 76.1042 36.9895C76.5632 36.7558 77.0193 36.5222 77.4783 36.2885V36.7351Z" fill="#B9FD50"/>
<path d="M87.094 36.7292C87.094 36.7529 86.9541 36.8327 86.6771 36.9658C86.4 37.0989 86.1789 37.1995 86.0166 37.2704C85.8543 37.3414 85.6836 37.4006 85.5045 37.4449C85.3254 37.4893 85.1686 37.5307 85.0343 37.5632C84.7377 37.8383 84.4075 38.0719 84.0436 38.2671C83.6798 38.4623 83.2825 38.5599 82.8515 38.5599C82.4289 38.5599 82.0931 38.3588 81.8412 37.9536C81.5893 37.5484 81.4634 37.1196 81.4634 36.6612C81.4634 35.7532 81.8888 34.9843 82.7423 34.3573C83.5959 33.7273 84.3179 33.4138 84.9084 33.4138C85.2134 33.4138 85.4289 33.4641 85.5548 33.5647C85.6808 33.6652 85.7424 33.7983 85.7424 33.9639C85.734 34.0142 85.7284 34.0527 85.7284 34.0763C85.7284 34.1443 85.7843 34.2124 85.8963 34.2833C86.0082 34.3543 86.0726 34.4401 86.0838 34.5406C86.0978 34.6412 86.1034 34.7506 86.1034 34.866C86.1034 35.1736 86.0502 35.4782 85.9438 35.7739C85.8375 36.0697 85.7256 36.3684 85.6108 36.6701C85.6108 36.7203 85.636 36.7617 85.6836 36.7943C85.734 36.8268 85.7843 36.8446 85.8375 36.8446C86.0166 36.8446 86.2321 36.7736 86.4812 36.6316C86.7302 36.4896 86.9317 36.3713 87.0856 36.2797V36.7292H87.094ZM84.6285 34.6619C84.5474 34.6205 84.2815 34.7595 83.8338 35.0819C83.3832 35.4042 83.0502 35.7444 82.8291 36.1022C82.608 36.463 82.4989 36.8386 82.4989 37.232C82.4989 37.3651 82.5464 37.4745 82.6416 37.5573C82.7367 37.6401 82.8795 37.6815 83.067 37.6815C83.2209 37.6815 83.3692 37.649 83.5147 37.5869C83.6602 37.5248 83.7974 37.4508 83.9289 37.368C84.0604 37.2852 84.1332 37.1906 84.1528 37.0871C84.1696 36.9836 84.1808 36.8623 84.1808 36.7292C84.1808 36.605 84.1808 36.4867 84.1808 36.3773C84.1808 36.2678 84.192 36.1554 84.2144 36.0401C84.2367 35.9218 84.3263 35.6704 84.4858 35.283C84.6425 34.8955 84.6929 34.6885 84.6285 34.6619Z" fill="#B9FD50"/>
<path d="M93.8441 36.7292C93.8441 36.7706 93.6314 36.9658 93.206 37.3118C92.7806 37.6608 92.3021 37.9921 91.7676 38.3056C91.2331 38.6191 90.7881 38.7758 90.4299 38.7758C90.3683 38.7758 90.2648 38.7581 90.1192 38.7255C89.9765 38.693 89.8674 38.6043 89.7974 38.4653C89.7247 38.3233 89.6911 38.1429 89.6911 37.9181C89.6911 37.7525 89.7051 37.578 89.7302 37.3887C89.7582 37.2024 89.7582 37.1048 89.7302 37.0959C89.5148 37.3207 89.2349 37.6165 88.8907 37.9862C88.5465 38.3558 88.2162 38.5392 87.9028 38.5392C87.581 38.5392 87.3263 38.3825 87.1444 38.0719C86.9625 37.7614 86.8702 37.3976 86.8702 36.9806C86.8702 36.8653 86.887 36.6937 86.9177 36.4689C86.9485 36.2442 87.1892 35.8242 87.637 35.209C88.0847 34.5939 88.4345 34.2271 88.6864 34.1118C88.748 34.0941 88.8711 34.0793 89.0558 34.0615C89.2405 34.0438 89.3496 34.0379 89.386 34.0379C89.5371 34.0379 89.6407 34.0438 89.6967 34.0556C89.7498 34.0674 89.7862 34.0941 89.803 34.1355C89.8562 34.2597 89.7946 34.443 89.6127 34.6856C89.4336 34.9281 89.1845 35.1972 88.8655 35.49C88.5465 35.7858 88.289 36.0697 88.0903 36.3447C87.8916 36.6198 87.7937 36.8446 87.7937 37.019C87.7937 37.1107 87.8245 37.1728 87.8888 37.2054C88.0148 37.2971 88.2666 37.2113 88.6416 36.9481C89.0194 36.6848 89.4784 36.2767 90.0213 35.7207C90.5642 35.1676 90.97 34.7536 91.2414 34.4815C91.5101 34.2094 91.7536 33.9846 91.9691 33.8072C92.1845 33.6268 92.3497 33.538 92.4672 33.538C92.5204 33.538 92.5679 33.6061 92.6071 33.7362C92.6463 33.8693 92.6687 34.0024 92.6687 34.1355C92.6687 34.1946 92.6603 34.2478 92.6407 34.2981C92.5232 34.4904 92.3888 34.6737 92.2377 34.8541C92.0838 35.0316 91.9187 35.2416 91.7396 35.4841C91.5605 35.7266 91.3982 35.9987 91.2554 36.3063C91.1127 36.6139 91.04 36.8623 91.04 37.0545C91.04 37.2379 91.1071 37.3592 91.2414 37.4154C91.3674 37.4656 91.7004 37.3562 92.2405 37.0871C92.7806 36.8179 93.3152 36.5458 93.8441 36.2649V36.7292Z" fill="#B9FD50"/>
<path d="M98.6631 36.7322C98.6631 36.7647 98.4197 36.9688 97.9355 37.3444C97.4514 37.72 96.9141 38.0719 96.3264 38.4002C95.7387 38.7285 95.2573 38.8941 94.8795 38.8941C94.5745 38.8941 94.3786 38.8202 94.2946 38.6753C94.2079 38.5274 94.1659 38.3854 94.1659 38.2435C94.1659 37.9507 94.2611 37.5366 94.4542 37.0013C94.6473 36.466 94.7424 36.1939 94.7424 36.185C94.5801 36.253 94.4234 36.3211 94.2722 36.3891C94.1827 36.4571 94.0428 36.5725 93.8553 36.7322V36.2826C94.1883 36.049 94.5913 35.7651 95.067 35.4338C95.5428 35.0996 95.7415 34.8601 95.6603 34.7092C95.6239 34.6501 95.4952 34.6205 95.2713 34.6205H94.9607C94.8627 34.6205 94.8096 34.6087 94.7984 34.582C94.7452 34.4401 94.8347 34.2242 95.067 33.9314C95.2993 33.6386 95.4812 33.4641 95.6127 33.405C95.7415 33.3458 95.957 33.3103 96.2592 33.2926C96.5586 33.2748 96.7433 33.2541 96.8105 33.2245C96.8777 33.195 97.0456 33.0264 97.3143 32.7188C97.5829 32.4112 97.7508 32.2338 97.8124 32.1924C97.9551 32.1243 98.1398 32.0918 98.3637 32.0918C98.498 32.0918 98.5848 32.1066 98.6268 32.1362C98.6659 32.1657 98.6883 32.2042 98.6883 32.2545C98.6883 32.355 98.582 32.5354 98.3721 32.7957C98.1622 33.056 98.0699 33.2068 98.095 33.2482C98.1314 33.2985 98.2014 33.3221 98.3105 33.3221H98.4728C98.5708 33.3221 98.6212 33.3547 98.6212 33.4227C98.6296 33.5558 98.4924 33.7924 98.2098 34.1325C97.9271 34.4726 97.7172 34.6678 97.5829 34.7122C97.4486 34.7565 97.3086 34.7802 97.1659 34.7802H97.0036C96.7965 34.7802 96.6706 34.8039 96.6258 34.8541C96.2564 35.422 95.9766 35.8745 95.7835 36.2176C95.5904 36.5577 95.4952 36.9096 95.4952 37.2675C95.4952 37.4922 95.5372 37.646 95.6239 37.7229C95.7079 37.8028 95.7918 37.8412 95.873 37.8412C96.1864 37.8412 96.609 37.6697 97.1379 37.3296C97.6669 36.9895 98.1734 36.6405 98.6603 36.2826V36.7322H98.6631Z" fill="#B9FD50"/>
<path d="M107.588 36.7322C107.588 36.7647 107.344 36.9688 106.86 37.3444C106.376 37.72 105.839 38.0719 105.251 38.4002C104.663 38.7285 104.182 38.8941 103.804 38.8941C103.499 38.8941 103.303 38.8202 103.219 38.6753C103.135 38.5274 103.09 38.3854 103.09 38.2435C103.09 37.9507 103.186 37.5366 103.379 37.0013C103.572 36.466 103.667 36.1939 103.667 36.185C103.505 36.253 103.348 36.3211 103.197 36.3891C103.107 36.4571 102.967 36.5725 102.78 36.7322V36.2826C103.113 36.049 103.516 35.7651 103.992 35.4338C104.467 35.0996 104.663 34.8601 104.585 34.7092C104.548 34.6501 104.42 34.6205 104.193 34.6205H103.882C103.784 34.6205 103.731 34.6087 103.72 34.582C103.667 34.4401 103.756 34.2242 103.989 33.9314C104.221 33.6386 104.403 33.4641 104.534 33.405C104.663 33.3458 104.879 33.3103 105.181 33.2926C105.48 33.2748 105.665 33.2541 105.732 33.2245C105.799 33.195 105.967 33.0264 106.236 32.7188C106.505 32.4112 106.673 32.2338 106.734 32.1924C106.877 32.1243 107.062 32.0918 107.285 32.0918C107.42 32.0918 107.506 32.1066 107.548 32.1362C107.588 32.1657 107.61 32.2042 107.61 32.2545C107.61 32.355 107.504 32.5354 107.294 32.7957C107.084 33.056 106.992 33.2068 107.017 33.2482C107.053 33.2985 107.123 33.3221 107.232 33.3221H107.395C107.492 33.3221 107.543 33.3547 107.543 33.4227C107.551 33.5558 107.414 33.7924 107.131 34.1325C106.849 34.4726 106.639 34.6678 106.505 34.7122C106.37 34.7565 106.23 34.7802 106.088 34.7802H105.925C105.718 34.7802 105.592 34.8039 105.547 34.8541C105.181 35.422 104.898 35.8745 104.705 36.2176C104.512 36.5577 104.417 36.9096 104.417 37.2675C104.417 37.4922 104.459 37.646 104.546 37.7229C104.632 37.8028 104.714 37.8412 104.795 37.8412C105.108 37.8412 105.531 37.6697 106.06 37.3296C106.589 36.9895 107.095 36.6405 107.582 36.2826V36.7322H107.588Z" fill="#B9FD50"/>
<path d="M113.909 36.7292C113.909 36.8209 113.462 37.1492 112.569 37.7141C111.676 38.2789 111.019 38.5629 110.596 38.5629C110.487 38.5629 110.372 38.5185 110.246 38.4327C110.12 38.344 110.059 38.1754 110.059 37.927C110.059 37.6372 110.187 37.2438 110.445 36.7529C110.702 36.2619 110.823 36.0076 110.806 35.9928C110.367 36.3832 109.924 36.7736 109.485 37.1669C108.648 38.0483 108.156 38.4564 108.002 38.3913C107.867 38.3411 107.756 38.1784 107.666 37.8974C107.576 37.6194 107.532 37.3207 107.532 37.0043C107.532 36.954 107.532 36.9037 107.532 36.8534C107.548 36.7884 107.582 36.5843 107.632 36.2471C107.683 35.91 108.117 35.1765 108.937 34.0438C109.756 32.911 110.616 31.8877 111.514 30.9709C112.412 30.0541 112.992 29.5957 113.252 29.5957C113.358 29.5957 113.462 29.6282 113.56 29.6962C113.658 29.7642 113.702 29.8293 113.694 29.8944C113.621 30.3439 113.168 31.0537 112.328 32.0238C111.489 32.9939 110.66 33.9343 109.84 34.8512C109.02 35.7651 108.609 36.3359 108.609 36.5606C108.609 36.6109 108.631 36.6494 108.676 36.673C108.738 36.6967 109.046 36.4571 109.597 35.9514C110.148 35.4456 110.658 35.0079 111.131 34.6442C111.601 34.2774 111.993 34.097 112.306 34.097C112.44 34.097 112.561 34.1502 112.67 34.2538C112.776 34.3573 112.832 34.4844 112.832 34.6353C112.832 34.9015 112.591 35.3185 112.113 35.8804C111.632 36.4423 111.394 36.812 111.394 36.9865C111.394 37.1019 111.433 37.1847 111.508 37.229C111.584 37.2764 111.654 37.2971 111.718 37.2971C111.959 37.2971 112.309 37.1699 112.768 36.9155C113.227 36.6612 113.599 36.4512 113.884 36.2826L113.909 36.7292Z" fill="#B9FD50"/>
<path d="M118.877 36.7351C118.877 36.8179 118.404 37.1403 117.458 37.7022C116.512 38.2642 115.751 38.5451 115.177 38.5451C114.701 38.5451 114.343 38.3381 114.1 37.924C113.856 37.51 113.736 37.093 113.736 36.676C113.736 35.7148 114.201 34.9192 115.132 34.2863C116.062 33.6563 116.828 33.3399 117.433 33.3399C117.729 33.3399 117.931 33.3931 118.04 33.5025C118.149 33.612 118.202 33.7332 118.202 33.8663C118.202 34.3602 117.92 34.8305 117.352 35.283C116.053 35.9928 115.348 36.3832 115.236 36.4482C115.124 36.5163 115.068 36.602 115.068 36.7115C115.068 36.88 115.155 37.0368 115.326 37.1876C115.496 37.3385 115.74 37.4124 116.053 37.4124C116.411 37.4124 116.974 37.229 117.738 36.8593C118.502 36.4896 118.882 36.2974 118.882 36.2826V36.7351H118.877ZM117.128 34.0793C117.091 34.0379 116.951 34.0793 116.708 34.2035C116.465 34.3277 116.243 34.4726 116.045 34.6412C115.846 34.8068 115.667 35.0109 115.505 35.2534C115.342 35.4959 115.292 35.6438 115.356 35.7029C115.41 35.7532 115.572 35.697 115.843 35.5344C116.115 35.3717 116.353 35.2002 116.56 35.0168C116.767 34.8334 116.929 34.6501 117.047 34.4608C117.164 34.2715 117.192 34.1443 117.128 34.0793Z" fill="#B9FD50"/>
<path d="M128.619 36.7292L126.911 37.0397C126.805 37.0634 126.66 37.0812 126.48 37.09C126.301 37.0989 126.125 37.2024 125.949 37.4065C125.775 37.6105 125.495 37.8353 125.115 38.0897C124.734 38.3411 124.387 38.4682 124.074 38.4682C123.662 38.4682 123.374 38.2967 123.212 37.9507C123.049 37.6046 122.971 37.1433 122.971 36.5606C122.971 35.8715 123.139 35.1913 123.475 34.517C123.811 33.8456 124.278 33.1417 124.874 32.4112C125.47 31.6807 126.097 31.0271 126.757 30.4563C127.418 29.8825 127.908 29.5957 128.23 29.5957C128.258 29.5957 128.311 29.6134 128.392 29.6459C128.473 29.6785 128.512 29.779 128.512 29.9447C128.512 30.2759 128.333 30.7728 127.972 31.4352C127.614 32.0948 127.242 32.6567 126.861 33.1122C126.48 33.5706 125.932 34.1769 125.218 34.934C124.505 35.6911 124.13 36.0993 124.093 36.1614C124.057 36.2235 124.04 36.3625 124.04 36.5784C124.04 36.8031 124.079 36.9983 124.155 37.164C124.23 37.3296 124.354 37.4124 124.524 37.4124C124.687 37.4124 124.841 37.3503 124.989 37.2261C125.137 37.1019 125.238 36.9865 125.291 36.8771C125.308 36.8179 125.322 36.673 125.33 36.4335C125.339 36.1969 125.358 35.9603 125.392 35.7296C125.423 35.4959 125.616 35.2002 125.971 34.8423C126.327 34.4844 126.665 34.307 126.987 34.307C127.194 34.307 127.298 34.4105 127.298 34.6175C127.298 34.7772 127.225 35.0612 127.077 35.4723C126.928 35.8834 126.855 36.1436 126.855 36.253C126.855 36.3625 126.911 36.4305 127.023 36.466C127.135 36.4985 127.258 36.5163 127.393 36.5163C127.661 36.5163 127.908 36.4867 128.132 36.4246C128.355 36.3625 128.518 36.3152 128.616 36.2826V36.7292H128.619ZM127.286 30.962C127.205 30.9295 127.023 31.0863 126.741 31.4293C126.458 31.7754 126.187 32.1036 125.926 32.4142C125.666 32.7247 125.423 33.0767 125.199 33.4671C124.975 33.8575 124.894 34.0822 124.955 34.1414C125.134 33.9758 125.319 33.8042 125.507 33.6297C125.84 33.2482 126.122 32.8903 126.355 32.5621C126.587 32.2338 126.819 31.8937 127.049 31.5447C127.281 31.1986 127.359 31.0034 127.286 30.962Z" fill="#B9FD50"/>
<path d="M133.67 36.7351C133.67 36.8179 133.197 37.1403 132.251 37.7022C131.305 38.2642 130.544 38.5451 129.97 38.5451C129.494 38.5451 129.136 38.3381 128.893 37.924C128.649 37.51 128.529 37.093 128.529 36.676C128.529 35.7148 128.994 34.9192 129.925 34.2863C130.855 33.6563 131.621 33.3399 132.226 33.3399C132.522 33.3399 132.724 33.3931 132.833 33.5025C132.939 33.612 132.995 33.7332 132.995 33.8663C132.995 34.3602 132.713 34.8305 132.145 35.283C130.846 35.9928 130.141 36.3832 130.029 36.4482C129.917 36.5163 129.861 36.602 129.861 36.7115C129.861 36.88 129.945 37.0368 130.116 37.1876C130.286 37.3385 130.53 37.4124 130.843 37.4124C131.202 37.4124 131.764 37.229 132.528 36.8593C133.292 36.4896 133.673 36.2974 133.673 36.2826V36.7351H133.67ZM131.921 34.0793C131.884 34.0379 131.744 34.0793 131.501 34.2035C131.258 34.3277 131.036 34.4726 130.838 34.6412C130.639 34.8068 130.46 35.0109 130.298 35.2534C130.135 35.4959 130.085 35.6438 130.149 35.7029C130.202 35.7532 130.365 35.697 130.636 35.5344C130.908 35.3717 131.146 35.2002 131.353 35.0168C131.56 34.8334 131.722 34.6501 131.84 34.4608C131.957 34.2715 131.985 34.1443 131.921 34.0793Z" fill="#B9FD50"/>
<path d="M138.923 36.7292C138.349 37.1521 137.719 37.5721 137.031 37.9921C136.345 38.412 135.727 38.6191 135.181 38.6191C134.75 38.6191 134.314 38.4268 133.869 38.0394C133.424 37.652 133.203 37.2142 133.203 36.7233C133.203 36.6819 133.647 36.2945 134.543 35.558C135.436 34.8216 135.945 34.3336 136.071 34.0941C136.197 33.8515 136.306 33.683 136.401 33.5824C136.496 33.4818 136.667 33.4316 136.919 33.4316C137.134 33.4316 137.269 33.5528 137.322 33.7983C137.375 34.0438 137.426 34.304 137.47 34.582C137.515 34.8601 137.537 35.0493 137.537 35.1499C137.537 35.3983 137.495 35.6497 137.417 35.8981C137.336 36.1466 137.193 36.3832 136.986 36.608C136.779 36.8327 136.513 37.0605 136.189 37.2941C136.079 37.3858 135.976 37.4775 135.878 37.5691C135.959 37.6194 136.057 37.6431 136.175 37.6431C136.552 37.6431 137.104 37.4213 137.831 36.9806C138.559 36.537 138.923 36.3033 138.923 36.2797V36.7292ZM136.043 36.6139C136.088 36.5311 136.124 36.4009 136.149 36.2264C136.177 36.0519 136.189 35.8863 136.189 35.7266C136.189 35.493 136.172 35.3126 136.141 35.1824C136.11 35.0523 136.057 34.9902 135.987 34.9902C135.869 34.9902 135.57 35.2061 135.089 35.6379C134.605 36.0697 134.364 36.3418 134.364 36.4482C134.364 36.5577 134.504 36.7262 134.786 36.954C135.069 37.1817 135.24 37.2882 135.304 37.2734C135.422 37.2409 135.556 37.1521 135.713 37.0102C135.869 36.8712 135.979 36.7381 136.043 36.6139Z" fill="#B9FD50"/>
<path d="M143.725 36.7322C143.725 36.7647 143.481 36.9688 142.997 37.3444C142.513 37.72 141.976 38.0719 141.388 38.4002C140.801 38.7285 140.319 38.8941 139.941 38.8941C139.636 38.8941 139.44 38.8202 139.356 38.6753C139.273 38.5274 139.228 38.3854 139.228 38.2435C139.228 37.9507 139.323 37.5366 139.516 37.0013C139.709 36.466 139.804 36.1939 139.804 36.185C139.642 36.253 139.485 36.3211 139.334 36.3891C139.245 36.4571 139.105 36.5725 138.917 36.7322V36.2826C139.25 36.049 139.653 35.7651 140.129 35.4338C140.605 35.0996 140.801 34.8601 140.722 34.7092C140.686 34.6501 140.557 34.6205 140.33 34.6205H140.02C139.922 34.6205 139.869 34.6087 139.857 34.582C139.804 34.4401 139.894 34.2242 140.126 33.9314C140.358 33.6386 140.54 33.4641 140.672 33.405C140.801 33.3458 141.016 33.3103 141.318 33.2926C141.618 33.2748 141.802 33.2541 141.87 33.2245C141.937 33.195 142.105 33.0264 142.373 32.7188C142.642 32.4112 142.81 32.2338 142.871 32.1924C143.014 32.1243 143.199 32.0918 143.423 32.0918C143.557 32.0918 143.644 32.1066 143.686 32.1362C143.725 32.1657 143.747 32.2042 143.747 32.2545C143.747 32.355 143.641 32.5354 143.431 32.7957C143.221 33.056 143.129 33.2068 143.154 33.2482C143.19 33.2985 143.26 33.3221 143.37 33.3221H143.532C143.63 33.3221 143.68 33.3547 143.68 33.4227C143.689 33.5558 143.551 33.7924 143.269 34.1325C142.986 34.4726 142.776 34.6678 142.642 34.7122C142.508 34.7565 142.368 34.7802 142.225 34.7802H142.063C141.856 34.7802 141.73 34.8039 141.685 34.8541C141.315 35.422 141.036 35.8745 140.842 36.2176C140.649 36.5577 140.554 36.9096 140.554 37.2675C140.554 37.4922 140.596 37.646 140.683 37.7229C140.77 37.8028 140.851 37.8412 140.932 37.8412C141.245 37.8412 141.668 37.6697 142.197 37.3296C142.726 36.9895 143.232 36.6405 143.719 36.2826V36.7322H143.725Z" fill="#B9FD50"/>
</svg>
