<svg width="102" height="65" viewBox="0 0 102 65" fill="none" xmlns="http://www.w3.org/2000/svg">
<rect width="102" height="64.9091" rx="9.27273" fill="#FDFDFD"/>
<path d="M79.6166 27.899L64.457 25.5234L66.4667 34.5568L79.6166 27.899Z" fill="#D12053"/>
<path d="M79.6157 27.899L68.1924 12.0276L64.459 25.5263L79.6157 27.899Z" fill="#E2136E"/>
<path d="M64.104 25.3434L52.1348 10.0466L67.8089 11.919L64.104 25.3434Z" fill="#D12053"/>
<path d="M58.6542 18.9514L52.0078 12.688H53.7573L58.6542 18.9514Z" fill="#9E1638"/>
<path d="M82.8491 20.1834L80.0361 27.8132L75.4766 21.507L82.8491 20.1834Z" fill="#D12053"/>
<path d="M68.2363 34.0995L79.2737 29.6657L79.7368 28.2563L68.2363 34.0995Z" fill="#E2136E"/>
<path d="M59.4082 42.4668L64.1364 25.8808L66.5349 36.6723L59.4082 42.4668Z" fill="#9E1638"/>
<path d="M83.2915 20.2435L82.1309 23.3937L86.316 23.3251L83.2915 20.2435Z" fill="#E2136E"/>
<path d="M15.6836 21.5071C15.8866 21.5242 16.0924 21.5614 16.3096 21.5614C16.5269 21.5614 16.7041 21.5242 16.9357 21.5071V28.2164C17.596 27.0929 18.4279 26.3525 19.6514 26.3525C21.864 26.3525 22.8131 28.5423 22.8131 30.5548C22.8131 32.9646 21.5267 35.2716 19.2712 35.2716C18.8196 35.2815 18.374 35.1677 17.9824 34.9424C17.5909 34.7172 17.2685 34.3891 17.05 33.9938C16.6727 34.3254 16.3382 34.7227 15.9809 35.0829H15.695L15.6836 21.5071ZM16.9071 31.3752C16.9071 33.3306 17.7361 34.6941 19.0997 34.6941C20.8692 34.6941 21.4381 32.3157 21.4381 30.6291C21.4381 28.6709 20.792 27.1301 19.2598 27.1129C17.4703 27.0986 16.9071 29.2169 16.9071 31.3781" fill="#E2136E"/>
<path d="M28.5866 25.8465L27.2545 27.5617C28.5066 29.3913 29.8044 31.1837 31.0622 33.0361L32.3315 35.0372V35.1372C32.0199 35.1172 31.7369 35.0772 31.4739 35.0772C31.2109 35.0772 30.8793 35.1172 30.5991 35.1372C30.2532 34.4969 29.9102 33.9051 29.5186 33.3248L26.0881 28.2507C26.011 28.1706 25.8251 28.1077 25.8251 28.1906V35.1372C25.5736 35.1172 25.3535 35.0772 25.1362 35.0772C24.9189 35.0772 24.6674 35.1172 24.4473 35.1372V21.5071C24.6674 21.5242 24.9047 21.5671 25.1362 21.5671C25.3678 21.5671 25.5736 21.5242 25.8251 21.5071V27.6589C25.8251 27.779 26.0596 27.6989 26.2139 27.5389C26.5117 27.2302 26.7904 26.9037 27.0487 26.5612L30.905 21.5013C31.108 21.5185 31.3109 21.5614 31.5311 21.5614C31.7512 21.5614 31.9198 21.5185 32.1428 21.5013L28.5866 25.8465Z" fill="#231F20"/>
<path d="M38.9606 33.6021C38.9606 34.3111 38.9149 34.6713 39.8383 34.4368V34.8342C39.6874 34.9098 39.5294 34.9701 39.3666 35.0143C38.5518 35.1772 37.8772 35.0314 37.7514 33.9652L37.6113 34.1224C37.339 34.4793 36.9877 34.7682 36.585 34.9666C36.1822 35.165 35.739 35.2674 35.2901 35.2659C34.1809 35.2659 33.209 34.3911 33.209 33.0504C33.209 30.9836 34.6383 30.712 36.1048 30.4404C37.3455 30.206 37.7686 30.0974 37.7686 29.2255C37.7686 27.8819 37.1111 27.1043 35.9362 27.1043C35.5349 27.0965 35.1409 27.2121 34.8076 27.4355C34.4742 27.659 34.2175 27.9795 34.0723 28.3536H33.9008V27.3473C34.6062 26.7336 35.5019 26.3822 36.4364 26.3525C38.0802 26.3525 38.9749 27.3473 38.9749 29.397L38.9606 33.6021ZM37.7085 30.6091L37.1568 30.7349C36.0905 30.9693 34.4925 31.1494 34.4925 32.8045C34.4925 33.948 35.0643 34.5197 36.0248 34.5197C36.5216 34.4586 36.976 34.2088 37.294 33.8222C37.4084 33.6907 37.7228 33.382 37.7228 33.2505L37.7085 30.6091Z" fill="#231F20"/>
<path d="M41.7514 33.362C42.123 34.0738 42.8148 34.7113 43.5524 34.7113C43.9732 34.6898 44.3692 34.5053 44.6563 34.1969C44.9434 33.8884 45.0991 33.4803 45.0903 33.059C45.0903 30.612 41.3884 32.2014 41.3884 29.034C41.3884 27.2959 42.5318 26.3554 43.9411 26.3554C44.5643 26.3415 45.1787 26.5041 45.7135 26.8242C45.5591 27.2436 45.435 27.6735 45.3419 28.1106H45.199C44.9931 27.5132 44.4471 26.9128 43.8668 26.9128C43.0835 26.9128 42.4375 27.4417 42.4375 28.4222C42.4375 30.7406 46.1395 29.5057 46.1395 32.4072C46.1395 34.3483 44.6358 35.2659 43.2522 35.2659C42.5593 35.2654 41.8809 35.067 41.2969 34.6942C41.4372 34.2592 41.547 33.8151 41.6256 33.3649L41.7514 33.362Z" fill="#231F20"/>
<path d="M48.25 21.5071C48.4587 21.5242 48.6616 21.5614 48.8789 21.5614C49.0962 21.5614 49.2734 21.5242 49.5078 21.5071V28.1078C50.0567 27.0015 50.9171 26.3525 52.032 26.3525C53.8501 26.3525 54.5562 27.5989 54.5562 29.8859V35.1372C54.319 35.1172 54.136 35.0829 53.9273 35.0829C53.7186 35.0829 53.5042 35.1201 53.2984 35.1372V30.3004C53.2984 28.2993 52.8953 27.2902 51.5603 27.2902C50.1482 27.2902 49.5078 28.3079 49.5078 30.1917V35.1372C49.2734 35.1172 49.0876 35.0829 48.8789 35.0829C48.6702 35.0829 48.4615 35.1201 48.25 35.1372V21.5071Z" fill="#231F20"/>
<path d="M17.9629 53.213L17.9086 52.7585H17.8857C17.7577 52.9283 17.5912 53.0654 17.3998 53.1583C17.2085 53.2512 16.9978 53.2974 16.7852 53.293C16.6433 53.3038 16.5008 53.2849 16.3666 53.2376C16.2325 53.1902 16.1096 53.1156 16.0059 53.0183C15.9021 52.921 15.8197 52.8031 15.7639 52.6723C15.7081 52.5415 15.6801 52.4004 15.6817 52.2582C15.6817 51.4006 16.4564 50.9118 17.8486 50.9175V50.8432C17.8626 50.7322 17.8513 50.6195 17.8156 50.5135C17.7798 50.4075 17.7205 50.311 17.6421 50.2312C17.5637 50.1514 17.4683 50.0905 17.3629 50.0529C17.2576 50.0153 17.1451 50.002 17.0339 50.0141C16.7025 50.0155 16.378 50.1085 16.0962 50.2829L15.9476 49.8483C16.3048 49.6341 16.7145 49.5233 17.1311 49.5282C18.2345 49.5282 18.5032 50.28 18.5032 51.0004V52.3497C18.4984 52.6367 18.5185 52.9237 18.5632 53.2073L17.9629 53.213ZM17.8543 51.3749C17.1396 51.3606 16.3278 51.4864 16.3278 52.1867C16.3195 52.2703 16.3297 52.3546 16.3577 52.4337C16.3857 52.5128 16.4307 52.5848 16.4897 52.6446C16.5486 52.7044 16.62 52.7504 16.6987 52.7795C16.7774 52.8085 16.8616 52.8199 16.9452 52.8128C17.1334 52.8148 17.3174 52.7577 17.4713 52.6494C17.6251 52.5412 17.7411 52.3873 17.8028 52.2096C17.8257 52.1423 17.8382 52.072 17.84 52.0009L17.8543 51.3749Z" fill="#808285"/>
<path d="M21.157 48.2618C21.5474 48.1902 21.9436 48.1557 22.3405 48.1589C22.9866 48.1589 23.4068 48.2703 23.7184 48.5248C23.8546 48.6275 23.9638 48.7619 24.0365 48.9163C24.1092 49.0707 24.1433 49.2405 24.1358 49.411C24.1271 49.6617 24.0396 49.9034 23.8856 50.1015C23.7316 50.2997 23.519 50.4441 23.2781 50.5144V50.5287C23.5686 50.5882 23.8297 50.7456 24.0181 50.9745C24.2064 51.2035 24.3105 51.4901 24.313 51.7865C24.3163 51.9744 24.2803 52.161 24.2075 52.3342C24.1347 52.5075 24.0265 52.6637 23.8899 52.7928C23.5383 53.1129 22.9723 53.2616 22.1547 53.2616C21.8183 53.2641 21.4821 53.2441 21.1484 53.2016L21.157 48.2618ZM21.8059 50.3172H22.392C23.078 50.3172 23.4811 49.9598 23.4811 49.4767C23.4811 48.8878 23.0352 48.6563 22.3777 48.6563C22.186 48.6512 21.9943 48.6665 21.8059 48.702V50.3172ZM21.8059 52.7242C21.986 52.7475 22.1676 52.7571 22.3491 52.7527C23.018 52.7527 23.6383 52.5069 23.6383 51.7779C23.6383 51.0919 23.0495 50.8088 22.3405 50.8088H21.8059V52.7242Z" fill="#808285"/>
<path d="M25.1934 48.2618C25.6018 48.1887 26.0162 48.1533 26.4312 48.156C27.123 48.156 27.5746 48.2818 27.8834 48.5677C28.0132 48.6891 28.1156 48.8368 28.1836 49.001C28.2516 49.1652 28.2838 49.342 28.2779 49.5196C28.2814 49.8071 28.1909 50.0878 28.0201 50.319C27.8492 50.5502 27.6075 50.7193 27.3316 50.8003V50.8232C27.7176 50.9575 27.9491 51.3149 28.0663 51.838C28.1542 52.3081 28.2843 52.7692 28.4551 53.2159H27.7919C27.6425 52.8272 27.5305 52.4252 27.4574 52.0152C27.3088 51.3234 27.0401 51.0633 26.454 51.0404H25.8394V53.2159H25.1934V48.2618ZM25.8394 50.5487H26.5026C27.1944 50.5487 27.6461 50.1685 27.6461 49.5968C27.6461 48.9479 27.1773 48.6649 26.5026 48.6563C26.2875 48.6501 26.0725 48.6702 25.8623 48.7163L25.8394 50.5487Z" fill="#808285"/>
<path d="M30.0475 51.635L29.5273 53.213H28.8555L30.5707 48.1932H31.3511L33.0663 53.213H32.3659L31.8285 51.635H30.0475ZM31.6941 51.129L31.2024 49.6825C31.0881 49.3567 31.0166 49.0594 30.9423 48.7678H30.928C30.8537 49.0536 30.7708 49.371 30.6736 49.6768L30.1819 51.129H31.6941Z" fill="#808285"/>
<path d="M37.1877 53.0501C36.7671 53.2214 36.3152 53.3022 35.8613 53.2874C34.4319 53.2874 33.3828 52.3955 33.3828 50.7489C33.3828 49.1766 34.4462 48.1132 36.0042 48.1132C36.4124 48.0963 36.8191 48.1726 37.1934 48.3361L37.0391 48.8707C36.7211 48.7279 36.3756 48.6567 36.0271 48.662C34.8493 48.662 34.0689 49.4139 34.0689 50.7317C34.0689 51.9609 34.775 52.7499 35.9985 52.7499C36.3609 52.7554 36.7204 52.6843 37.0534 52.5412L37.1877 53.0501Z" fill="#808285"/>
<path d="M39.5808 48.2618C39.9712 48.1902 40.3675 48.1557 40.7643 48.1589C41.4104 48.1589 41.8306 48.2703 42.1422 48.5248C42.2784 48.6275 42.3876 48.7619 42.4603 48.9163C42.533 49.0707 42.5671 49.2405 42.5596 49.411C42.551 49.6617 42.4634 49.9034 42.3094 50.1015C42.1555 50.2997 41.9429 50.4441 41.702 50.5144V50.5287C41.9924 50.5882 42.2536 50.7456 42.4419 50.9745C42.6303 51.2035 42.7344 51.4901 42.7368 51.7865C42.7401 51.9744 42.7042 52.161 42.6313 52.3342C42.5585 52.5075 42.4503 52.6637 42.3137 52.7928C41.9621 53.1129 41.3961 53.2616 40.5785 53.2616C40.2421 53.2641 39.906 53.2441 39.5723 53.2016L39.5808 48.2618ZM40.2298 50.3172H40.8158C41.5019 50.3172 41.9049 49.9598 41.9049 49.4767C41.9049 48.8878 41.459 48.6563 40.8015 48.6563C40.6098 48.6512 40.4182 48.6665 40.2298 48.702V50.3172ZM40.2298 52.7242C40.4098 52.7475 40.5914 52.7571 40.7729 52.7527C41.4418 52.7527 42.0622 52.5069 42.0622 51.7779C42.0622 51.0919 41.4733 50.8088 40.7643 50.8088H40.224L40.2298 52.7242Z" fill="#808285"/>
<path d="M45.5851 53.213L45.5336 52.7585H45.5107C45.3823 52.9286 45.2152 53.0657 45.0234 53.1587C44.8316 53.2516 44.6204 53.2976 44.4073 53.293C44.2657 53.3033 44.1235 53.2841 43.9897 53.2366C43.8558 53.1892 43.7333 53.1144 43.6299 53.0171C43.5265 52.9199 43.4443 52.8022 43.3887 52.6716C43.3331 52.5409 43.3051 52.4002 43.3067 52.2582C43.3067 51.4006 44.0814 50.9118 45.4736 50.9175V50.8432C45.4881 50.7316 45.4771 50.6182 45.4414 50.5115C45.4057 50.4048 45.3462 50.3076 45.2675 50.2272C45.1888 50.1469 45.0929 50.0854 44.9869 50.0475C44.881 50.0096 44.7678 49.9962 44.656 50.0084C44.3237 50.0095 43.9982 50.1025 43.7155 50.2771L43.5668 49.8426C43.924 49.6281 44.3338 49.5173 44.7503 49.5225C45.8538 49.5225 46.1225 50.2743 46.1225 50.9947V52.344C46.1177 52.631 46.1378 52.918 46.1825 53.2016L45.5851 53.213ZM45.4879 51.372C44.7732 51.3577 43.9613 51.4835 43.9613 52.1839C43.9531 52.2674 43.9633 52.3517 43.9913 52.4308C44.0192 52.51 44.0643 52.582 44.1232 52.6417C44.1822 52.7015 44.2535 52.7475 44.3323 52.7766C44.411 52.8057 44.4952 52.8171 44.5788 52.8099C44.767 52.8124 44.9512 52.7554 45.1052 52.6471C45.2592 52.5388 45.3751 52.3847 45.4364 52.2067C45.4599 52.1396 45.4724 52.0692 45.4736 51.9981L45.4879 51.372Z" fill="#808285"/>
<path d="M47.1809 50.5859C47.1809 50.2143 47.1809 49.9084 47.1523 49.6111H47.7241L47.7612 50.2057C47.8794 49.9949 48.0529 49.8203 48.2629 49.7009C48.473 49.5815 48.7117 49.5218 48.9533 49.5282C49.4536 49.5282 50.2254 49.814 50.2254 51.0633V53.2159H49.5879V51.1376C49.5879 50.5659 49.3735 50.0713 48.7532 50.0713C48.5544 50.0747 48.3618 50.1413 48.2035 50.2616C48.0451 50.3819 47.9293 50.5496 47.8727 50.7402C47.8426 50.8394 47.8281 50.9426 47.8298 51.0461V53.213H47.1752L47.1809 50.5859Z" fill="#808285"/>
<path d="M51.9554 51.2634H51.9726C52.0612 51.1376 52.187 50.9775 52.2927 50.8546L53.3505 49.6111H54.1394L52.7473 51.0947L54.331 53.2159H53.5363L52.2927 51.5007L51.9583 51.8723V53.2273H51.3008V47.9273H51.9468L51.9554 51.2634Z" fill="#808285"/>
<path d="M60.5267 53.0815C60.2012 53.2261 59.8479 53.2973 59.4918 53.2902C58.4055 53.2902 57.6994 52.5526 57.6994 51.4492C57.6869 51.1927 57.7286 50.9364 57.8217 50.697C57.9148 50.4576 58.0573 50.2405 58.2399 50.0599C58.4224 49.8792 58.641 49.739 58.8813 49.6484C59.1216 49.5577 59.3784 49.5187 59.6348 49.5339C59.9476 49.5302 60.2575 49.5935 60.5438 49.7197L60.3952 50.2285C60.1611 50.1057 59.8989 50.0465 59.6348 50.057C58.8086 50.057 58.3626 50.6688 58.3626 51.4206C58.3626 52.2553 58.9001 52.767 59.6147 52.767C59.8926 52.7676 60.167 52.7061 60.418 52.587L60.5267 53.0815Z" fill="#808285"/>
<path d="M64.5105 51.3806C64.5105 52.7128 63.5871 53.2959 62.7152 53.2959C61.7404 53.2959 61 52.5813 61 51.4406C61 50.2343 61.789 49.5282 62.7867 49.5282C63.7843 49.5282 64.5105 50.28 64.5105 51.3806ZM61.6518 51.4178C61.6518 52.2068 62.1063 52.8014 62.7467 52.8014C63.387 52.8014 63.8415 52.2125 63.8415 51.4006C63.8415 50.7889 63.5356 50.017 62.7609 50.017C61.9862 50.017 61.6489 50.7346 61.6489 51.4206L61.6518 51.4178Z" fill="#808285"/>
<path d="M65.3352 50.5859C65.3352 50.2143 65.3352 49.9084 65.3066 49.6111H65.8784L65.9098 50.1828H65.9327C66.0414 49.9757 66.2064 49.8036 66.4087 49.6863C66.6111 49.5689 66.8424 49.5111 67.0762 49.5196C67.3007 49.5177 67.5201 49.5866 67.7032 49.7164C67.8864 49.8462 68.0241 50.0304 68.0967 50.2429C68.1977 50.0607 68.3349 49.9012 68.4998 49.774C68.7281 49.5995 69.0103 49.5105 69.2973 49.5225C69.7719 49.5225 70.4808 49.8341 70.4808 51.0862V53.2073H69.8405V51.1662C69.8405 50.4716 69.5861 50.0542 69.0601 50.0542C68.8858 50.0627 68.7183 50.1242 68.5798 50.2304C68.4414 50.3367 68.3387 50.4826 68.2854 50.6488C68.2523 50.7553 68.235 50.866 68.2339 50.9775V53.2044H67.5936V51.0461C67.5936 50.4744 67.3392 50.0542 66.8417 50.0542C66.6547 50.0654 66.4759 50.1348 66.3303 50.2527C66.1847 50.3706 66.0797 50.5311 66.0299 50.7117C65.994 50.8145 65.9766 50.9229 65.9784 51.0319V53.2073H65.3352V50.5859Z" fill="#808285"/>
<path d="M71.5423 50.786C71.5423 50.3229 71.528 49.9513 71.5137 49.6111H72.1026L72.1311 50.2286H72.1454C72.2763 50.0075 72.4643 49.8258 72.6896 49.7026C72.915 49.5793 73.1694 49.5191 73.4261 49.5282C74.298 49.5282 74.9527 50.2657 74.9527 51.3606C74.9527 52.6584 74.1637 53.2959 73.3146 53.2959C73.096 53.3051 72.8788 53.2571 72.6844 53.1569C72.4899 53.0567 72.3248 52.9075 72.2055 52.7242H72.1883V54.6824H71.5423V50.786ZM72.1883 51.7465C72.1904 51.8367 72.1999 51.9266 72.2169 52.0152C72.2717 52.2347 72.3982 52.4295 72.5764 52.5688C72.7545 52.7081 72.9741 52.7839 73.2003 52.7842C73.8921 52.7842 74.2952 52.2125 74.2952 51.392C74.2952 50.6688 73.915 50.0513 73.2203 50.0513C72.9472 50.077 72.6925 50.2 72.5025 50.3978C72.3126 50.5956 72.2 50.8552 72.1855 51.129L72.1883 51.7465Z" fill="#808285"/>
<path d="M77.7804 53.213L77.7261 52.7585H77.7061C77.578 52.9284 77.4115 53.0654 77.2201 53.1583C77.0288 53.2513 76.8181 53.2974 76.6055 53.2931C76.4636 53.3038 76.3211 53.2849 76.187 53.2376C76.0528 53.1903 75.9299 53.1156 75.8262 53.0183C75.7224 52.921 75.64 52.8032 75.5842 52.6723C75.5284 52.5415 75.5004 52.4005 75.502 52.2582C75.502 51.4006 76.2767 50.9118 77.6689 50.9175V50.8432C77.6835 50.7313 77.6724 50.6177 77.6366 50.5107C77.6007 50.4038 77.541 50.3064 77.462 50.226C77.3829 50.1456 77.2866 50.0842 77.1803 50.0465C77.074 50.0088 76.9605 49.9958 76.8485 50.0084C76.5171 50.0096 76.1925 50.1026 75.9108 50.2772L75.7622 49.8426C76.1192 49.6279 76.529 49.517 76.9456 49.5225C78.0462 49.5225 78.315 50.2743 78.315 50.9947V52.344C78.3108 52.631 78.3309 52.9179 78.375 53.2016L77.7804 53.213ZM77.6832 51.372C76.9685 51.3577 76.1538 51.4835 76.1538 52.1839C76.1455 52.2677 76.1557 52.3523 76.1839 52.4316C76.212 52.511 76.2573 52.5831 76.3166 52.6429C76.3759 52.7028 76.4476 52.7487 76.5267 52.7776C76.6058 52.8065 76.6903 52.8175 76.7741 52.8099C76.9623 52.812 77.1463 52.7548 77.3001 52.6466C77.454 52.5384 77.57 52.3845 77.6317 52.2068C77.6545 52.1395 77.667 52.0691 77.6689 51.9981L77.6832 51.372Z" fill="#808285"/>
<path d="M79.3665 50.5859C79.3665 50.2143 79.3665 49.9084 79.3379 49.6111H79.9096L79.9468 50.2057C80.0649 49.9949 80.2384 49.8203 80.4485 49.7009C80.6586 49.5815 80.8973 49.5218 81.1389 49.5282C81.6363 49.5282 82.411 49.814 82.411 51.0633V53.2159H81.7563V51.1376C81.7563 50.5659 81.5391 50.0713 80.9216 50.0713C80.7231 50.0748 80.531 50.1416 80.3731 50.2619C80.2153 50.3822 80.1 50.5498 80.044 50.7402C80.0132 50.8392 79.9987 50.9425 80.0011 51.0461V53.213H79.3436L79.3665 50.5859Z" fill="#808285"/>
<path d="M83.6453 49.6111L84.4343 51.7408C84.5172 51.9781 84.6058 52.2611 84.6658 52.4783H84.683C84.7487 52.2611 84.823 51.9866 84.9117 51.7265L85.6263 49.6111H86.3181L85.3347 52.1839C84.8659 53.4188 84.5457 54.0535 84.0998 54.4394C83.8728 54.647 83.5961 54.7927 83.2965 54.8625L83.1336 54.3107C83.3427 54.2413 83.5368 54.1326 83.7053 53.9906C83.943 53.7934 84.1318 53.5439 84.257 53.2616C84.2824 53.2123 84.2998 53.1592 84.3085 53.1044C84.3016 53.0453 84.2862 52.9875 84.2627 52.9329L82.9277 49.6111H83.6453Z" fill="#808285"/>
</svg>
