<svg width="102" height="65" viewBox="0 0 102 65" fill="none" xmlns="http://www.w3.org/2000/svg">
<rect width="102" height="64.9091" rx="9.27273" fill="#FDFDFD"/>
<path d="M61.4559 28.9361H48.8767C48.6276 28.9361 48.503 29.1229 48.503 29.3098V30.3061C48.503 30.5552 48.6899 30.6798 48.8767 30.6798H58.28V35.9107C58.0309 35.5371 57.7195 35.1634 57.4081 34.7898C56.2872 33.6689 55.104 33.1084 53.8586 33.1084C52.8622 33.1084 52.0526 33.6066 51.3676 34.4784C50.8072 35.2257 50.4958 36.0975 50.4958 36.9071C50.4958 37.7167 50.6203 38.7753 51.2431 39.7717C51.9903 40.9549 53.2358 41.3285 54.3567 41.3285C55.789 41.3285 56.9722 40.3321 56.9722 39.0244C56.9722 38.2771 56.5986 37.6544 55.9136 37.2185L55.2286 36.8448V37.9657C55.1663 38.2771 54.6681 38.713 54.1076 38.713C53.6095 38.713 53.1735 38.5262 52.8622 38.2148C52.6754 38.028 52.5508 37.6544 52.6131 37.4053C52.6131 37.0316 52.7376 36.7203 52.9867 36.4089C53.2981 36.0353 53.6095 35.8485 54.1076 35.8485C55.3531 35.8485 56.4118 36.4089 57.2836 37.6544C57.9686 38.713 58.3422 39.7094 58.3422 40.8303V43.4458L60.2104 44.5667C60.2727 44.629 60.335 44.629 60.3972 44.629C60.6463 44.629 60.7709 44.4422 60.7709 44.2553V30.742H61.5182C61.7673 30.742 61.8918 30.5552 61.8918 30.3684V29.372C61.8918 29.1229 61.705 28.9361 61.4559 28.9361Z" fill="#ED1C24"/>
<path d="M86.6143 28.9361H70.6723C70.4232 28.9361 70.2987 29.1229 70.2987 29.3098V31.0534C68.7419 29.4343 67.3718 28.6248 66.1264 28.6248C64.9432 28.6248 63.9468 28.8738 63.075 29.5589C62.2654 30.1816 61.7672 30.9911 61.7672 31.9252C61.7672 34.7275 64.8809 34.6653 65.6905 34.2916C65.815 34.2293 66.0018 34.1048 66.1886 34.1048C66.8114 34.1048 67.0605 34.603 67.0605 35.0389C67.0605 35.6616 66.1264 36.2221 65.0055 36.2221C64.3827 36.2221 64.0091 36.0353 63.76 35.6616L63.2618 34.9144L62.9504 35.7862C62.8882 35.973 62.7636 36.2221 62.7636 36.5335C62.7636 37.1562 63.075 37.7789 63.6977 38.3394C64.2582 38.8376 64.9432 39.0867 65.6905 39.0867C66.8737 39.0867 67.87 38.6507 68.4928 37.7789C69.0532 37.0939 69.3023 36.2844 69.3023 35.3503C69.3023 34.8521 69.1155 34.2916 68.6796 33.6689C68.1814 32.9216 67.5587 32.548 66.8737 32.548C66.6246 32.548 66.3132 32.6102 66.0018 32.7348C65.8773 32.7971 65.6282 32.8593 65.5659 32.8593C65.4414 32.8593 65.2546 32.7971 65.13 32.6102C65.0055 32.4857 64.8809 32.2989 64.8809 31.9875C64.8809 31.3025 65.5036 30.6175 66.6246 30.6175H66.6868C67.4341 30.6175 68.1814 30.9911 68.8664 31.6761C69.4269 32.2366 69.8628 32.7971 70.2364 33.4198V43.3212L72.1046 44.4422C72.1669 44.5044 72.2292 44.5044 72.2914 44.5044C72.5405 44.5044 72.6651 44.3176 72.6651 44.1308V30.742H75.5296V39.398L77.7715 40.3321H77.896C78.0829 40.3321 78.2697 40.2076 78.2697 39.9585V39.8962C78.6433 37.343 79.7642 35.5994 81.6324 34.5407V35.0389C81.6324 35.4125 81.6324 36.3466 81.6947 36.8448C81.6947 37.1562 81.6947 37.343 81.757 37.5298C81.757 38.5262 81.8815 40.0208 82.1929 41.1417C82.8156 43.259 83.8743 43.7572 84.6215 43.7572H84.6838C85.1197 43.7572 85.4934 43.6326 85.7425 43.3835C85.867 43.259 86.0538 43.0099 86.0538 42.574C86.0538 42.2003 85.9916 41.889 85.867 41.6399L85.6802 41.3285L85.3065 41.3908C84.9329 41.5153 84.7461 41.5153 84.7461 41.453H84.6838C84.5593 41.453 84.5593 41.453 84.497 41.3908C84.3725 41.3285 84.1234 41.1417 83.9365 40.4567C83.812 39.9585 83.7497 39.2735 83.7497 38.8998C83.7497 36.0975 84.3102 33.9803 85.2443 33.5443H85.3065C85.4311 33.4821 85.5556 33.3575 85.5556 33.1707C85.5556 33.1084 85.5556 33.0462 85.4934 32.9839V32.9216C85.0575 32.0498 84.1234 31.427 82.8779 31.1157H82.6288C81.6324 31.3025 80.4492 31.9875 78.9547 33.233C78.581 33.5443 78.2074 33.8557 77.896 34.1671V30.742H86.6143C86.8634 30.742 86.9879 30.5552 86.9879 30.3684V29.372C87.0502 29.1229 86.8634 28.9361 86.6143 28.9361Z" fill="#ED1C24"/>
<path d="M44.393 33.5443C44.393 33.9803 44.393 34.3539 44.3307 34.7275C44.2062 36.4712 43.7703 38.0903 43.0853 39.5848C42.8362 40.2076 42.5248 40.768 42.1512 41.3285C39.5357 45.4385 34.9275 48.1786 29.6965 48.1786C27.4547 48.1786 25.3374 47.6804 23.4692 46.8085C18.4873 44.5044 15 39.398 15 33.5443C15 27.7529 18.3628 22.7711 23.1578 20.4047C22.7842 20.9029 22.4105 21.4011 22.0992 21.9615C22.0992 22.0238 22.0369 22.0238 22.0369 22.0861C21.8501 22.2729 21.6632 22.3974 21.4764 22.5842C21.2273 22.7711 21.0405 23.0202 20.7914 23.207L20.5423 23.4561C20.48 23.5183 20.4178 23.6429 20.2932 23.7052C20.1687 23.892 19.9819 24.0788 19.8573 24.2656C19.2346 25.0752 18.7364 25.947 18.3628 26.8811C18.3005 26.9434 18.3005 27.0679 18.2382 27.1302C18.1759 27.2547 18.1759 27.3793 18.1137 27.4416C18.1137 27.5038 18.0514 27.5661 18.0514 27.6284C17.9891 27.8152 17.9268 27.9397 17.8646 28.1266C17.8023 28.2511 17.8023 28.3757 17.74 28.4379C17.74 28.5002 17.6778 28.5625 17.6778 28.6248C17.6778 28.7493 17.6155 28.8738 17.6155 28.9984L17.4287 30.1193C17.4287 30.2439 17.4287 30.3061 17.3664 30.4307V31.9252C17.3664 35.9107 19.1723 39.5226 22.0992 41.8267C24.341 43.6326 27.1433 44.7535 30.1947 44.7535C32.997 44.7535 35.5502 43.8817 37.6675 42.3249C39.2243 41.2039 40.4698 39.7717 41.4039 38.0903C41.5284 37.8412 41.653 37.6544 41.7775 37.4053C42.5248 35.8484 42.9607 34.1671 42.9607 32.3611V31.9252C42.9607 31.4893 42.9607 31.1157 42.8984 30.6798L42.9607 30.742C43.1475 30.9289 43.3343 31.0534 43.5212 31.2402C43.708 30.9289 43.8948 30.6798 44.0816 30.3684C44.2062 30.9289 44.2684 31.4893 44.3307 32.1121C44.393 32.6725 44.393 33.1084 44.393 33.5443Z" fill="#ED1C24"/>
<path d="M31.4402 21.7747L28.7001 16.7306C24.1542 18.7856 21.0405 23.3315 21.0405 28.6248C21.0405 31.3025 21.8501 33.7934 23.2201 35.8484C23.0955 35.1634 23.0955 34.4784 23.0955 33.7312C23.1578 28.3134 26.5828 23.7052 31.4402 21.7747Z" fill="#F7941D"/>
<path d="M33.6197 24.2656C34.7406 23.9543 35.9861 23.8297 37.1693 23.8297C37.9166 23.8297 38.7261 23.892 39.4111 24.0165L39.2243 17.291C38.7261 17.2287 38.1657 17.1665 37.6052 17.1665C35.1143 17.1665 32.8102 17.976 30.942 19.2838L32.4365 22.0238C29.7588 22.9579 27.5792 24.8261 26.2092 27.2547C25.5242 28.4379 25.026 29.8079 24.8392 31.2402C25.2128 30.493 25.6487 29.8079 26.1469 29.1852C27.9528 26.8188 30.5683 25.0129 33.6197 24.2656Z" fill="#ED1C24"/>
<path d="M40.1584 21.7124L40.2829 24.8884C39.2243 24.577 38.1657 24.3902 36.9825 24.3902C34.8029 24.3902 32.7479 25.0129 30.942 26.0716C28.7001 27.4416 26.9565 29.6211 26.0846 32.1743C26.9565 30.9911 28.0151 29.9325 29.2606 29.1229C31.0665 27.9397 33.2461 27.2547 35.5502 27.2547C37.2938 27.2547 38.9129 27.6284 40.4075 28.3134C41.5284 28.8116 42.5248 29.4966 43.3966 30.3684L45.1403 27.7529L47.3821 24.3279C45.3894 22.7088 42.8984 21.7124 40.1584 21.7124Z" fill="#F7941D"/>
<path d="M42.9607 32.0498V32.4857C42.9607 35.1012 41.9021 37.2807 41.7775 37.5298C41.653 37.7789 41.5284 37.9657 41.4039 38.2148C40.4698 39.8962 39.2243 41.3285 37.6675 42.4494C35.5502 43.944 32.997 44.8781 30.1947 44.8781C27.1433 44.8781 24.2787 43.8194 22.0991 41.9512C19.2346 39.5848 17.3664 36.0353 17.3664 32.0498V30.5552C17.3664 30.4307 17.3664 30.3684 17.4287 30.2439L17.6155 29.1229C17.6155 28.9984 17.6777 28.8738 17.6777 28.7493C17.6777 28.687 17.74 28.6248 17.74 28.5625C17.8023 28.4379 17.8023 28.3134 17.8646 28.2511C17.9268 28.0643 17.9891 27.8775 18.0514 27.7529C18.0514 27.6907 18.1137 27.6284 18.1137 27.5661C18.1759 27.4416 18.1759 27.317 18.2382 27.2547C18.3005 27.1925 18.3005 27.0679 18.3627 27.0056C18.7364 26.0715 19.2968 25.1997 19.8573 24.3902C19.9819 24.2034 20.1687 24.0165 20.2932 23.8297C20.3555 23.7674 20.4178 23.6429 20.5423 23.5806C20.6046 23.5183 20.6046 23.4561 20.6669 23.4561C20.7291 23.3938 20.7291 23.3315 20.7914 23.3315C20.9782 23.0824 21.2273 22.8956 21.4764 22.7088C21.6632 22.522 21.8501 22.3974 22.0369 22.2106C22.0369 22.2729 21.9746 22.2729 21.9746 22.3352C21.9746 22.3974 21.9123 22.4597 21.9123 22.4597C21.165 23.9543 20.6669 25.7602 20.48 27.6284C20.4178 28.1266 20.4178 28.6248 20.4178 29.1852C20.4178 35.9107 24.341 41.3285 29.1983 41.3285H29.6965C30.3815 41.3285 31.0665 41.2039 31.7515 41.0794C35.052 40.2076 37.4806 37.1562 37.4806 33.6066V33.4198C37.4184 31.3025 36.5466 29.372 35.1143 28.0643C36.1106 28.0643 37.107 28.2511 38.0411 28.5002C39.847 28.9361 41.4661 29.8079 42.8984 30.9289L42.9607 30.9911C42.8984 31.2402 42.9607 31.6761 42.9607 32.0498Z" fill="#F7941D"/>
<path d="M42.9607 32.0498V32.4857C42.9607 35.2257 41.7152 37.5921 41.7152 37.5921C41.5907 37.8412 41.4661 38.028 41.3416 38.2771C40.4075 39.9585 39.0998 41.3908 37.5429 42.5117C35.3634 44.1308 32.7479 44.9403 30.0079 44.9403C27.0187 44.9403 24.1542 43.8817 21.8501 42.0135C18.8609 39.5848 17.1173 35.9107 17.1173 32.0498C17.1173 28.1888 18.8609 24.5147 21.8501 22.0861L21.9746 21.9615C21.9746 22.0238 21.9123 22.0238 21.9123 22.0861C21.9123 22.1483 21.8501 22.1483 21.8501 22.2106C18.9232 24.6393 17.2418 28.1888 17.2418 32.0498C17.2418 35.9107 18.9232 39.4603 21.9123 41.9512C24.1542 43.8194 27.081 44.8158 30.0079 44.8158C32.6856 44.8158 35.3011 44.0062 37.4807 42.3871C39.0375 41.2662 40.283 39.8339 41.2171 38.1526C41.3416 37.9035 41.4661 37.7166 41.5284 37.4676C41.5284 37.4676 42.7739 35.1634 42.7739 32.4234V31.9875C42.7739 31.5516 42.7739 31.178 42.7116 30.742V30.6798L42.8362 30.8043C42.9607 31.3025 42.9607 31.6761 42.9607 32.0498Z" fill="#F7941D"/>
</svg>
