<svg width="102" height="65" viewBox="0 0 102 65" fill="none" xmlns="http://www.w3.org/2000/svg">
<rect width="102" height="64.9091" rx="9.27273" fill="#8C3494"/>
<path fill-rule="evenodd" clip-rule="evenodd" d="M66.419 17.6786L57.0483 27.0492L57.7162 32.3085L59.4275 28.698L64.7702 35.5225L72.2626 12.5028L47.3438 22.8543L54.0848 26.3814L66.419 17.6786Z" fill="white"/>
<path d="M58.2778 34.1241C58.2778 34.1241 50.3472 34.1241 48.4063 34.1241C40.8931 35.272 40.1 46.2079 48.3228 47.6897H58.257V37.8181C61.5753 37.9225 62.264 42.0548 59.8222 43.5783C60.3231 44.1626 62.2849 46.2914 62.2849 46.2914C67.4815 41.8043 64.518 34.4789 58.2778 34.1241ZM54.6673 43.9748C54.6673 43.9748 49.575 43.9748 49.1576 43.9748C45.7558 44.1835 44.6288 38.5486 48.8237 37.8181C50.055 37.8181 54.6673 37.8181 54.6673 37.8181V43.9748Z" fill="white"/>
<path fill-rule="evenodd" clip-rule="evenodd" d="M78.8983 39.0495C77.2496 39.0495 75.2878 39.0495 75.2878 39.0495L73.7225 42.66C73.7225 42.66 77.9174 42.66 78.3348 42.66C79.2531 42.6183 79.2948 43.9748 78.3348 44.0583C77.1452 44.0583 70.3625 44.0583 70.3625 44.0583V37.8182H82.6132V34.1242C82.6132 34.1242 80.9018 34.1242 80.7975 34.1242C80.2549 26.4857 71.1138 26.2562 68.7137 30.4302C69.1937 30.8267 71.4268 32.8093 71.4268 32.8093C72.8043 30.6597 76.6235 30.7641 77.187 34.1242H66.752V47.6897H78.5018C81.1731 47.6479 82.4045 45.6862 82.6967 43.9957C82.8427 41.2617 81.2149 39.4669 78.8983 39.0495Z" fill="white"/>
<path fill-rule="evenodd" clip-rule="evenodd" d="M43.7319 34.1241H38.9735C37.45 35.9816 34.8204 43.4531 40.0379 49.088C40.0379 49.088 42.2918 47.147 42.751 46.7923C41.144 45.2061 38.4726 38.8408 43.7319 34.1241Z" fill="white"/>
<path fill-rule="evenodd" clip-rule="evenodd" d="M31.6075 49.1923C31.6075 50.8411 30.2718 52.1767 28.6231 52.1767C26.9744 52.1767 25.6387 50.8411 25.6387 49.1923C25.6387 47.5436 26.9744 46.2079 28.6231 46.2079C30.2718 46.2079 31.6075 47.5436 31.6075 49.1923Z" fill="white"/>
<path fill-rule="evenodd" clip-rule="evenodd" d="M25.2422 34.1241C17.729 35.272 16.936 46.2079 25.1588 47.6897H25.2214C25.8057 46.3957 27.0997 45.4983 28.6232 45.4983C30.1258 45.4983 31.4406 46.3957 32.025 47.6897H35.1138C35.1138 47.2305 35.1138 34.1241 35.1138 34.1241C35.1138 34.1241 27.1831 34.1241 25.2422 34.1241ZM31.4824 43.9748C31.4824 43.9748 26.3901 43.9748 25.9727 43.9748C22.5709 44.1835 21.4439 38.5486 25.6388 37.8181C26.8701 37.8181 31.4824 37.8181 31.4824 37.8181V43.9748Z" fill="white"/>
<path fill-rule="evenodd" clip-rule="evenodd" d="M28.7911 30.9102C30.0016 30.7015 30.6068 28.218 28.6241 27.6545C28.3946 27.6545 25.4102 27.6545 25.4102 27.6545V32.3711H26.725V30.8893L28.2067 32.3711H30.2729L28.7911 30.9102ZM28.6241 29.2406C28.6241 29.4076 28.4781 29.5537 28.3111 29.5537H26.7458V28.9067H28.3111C28.4781 28.9067 28.6241 29.0528 28.6241 29.2197V29.2406Z" fill="white"/>
<path fill-rule="evenodd" clip-rule="evenodd" d="M32.5485 27.5918C31.2337 27.5918 30.1484 28.6562 30.1484 29.9919C30.1484 31.3067 31.2128 32.3919 32.5485 32.3919C33.8633 32.3919 34.9485 31.3276 34.9485 29.9919C34.9485 28.6562 33.8633 27.5918 32.5485 27.5918ZM32.5485 31.0354C31.9641 31.0354 31.505 30.5554 31.505 29.9919C31.505 29.4075 31.985 28.9484 32.5485 28.9484C33.1329 28.9484 33.592 29.4284 33.592 29.9919C33.6129 30.5762 33.1329 31.0354 32.5485 31.0354Z" fill="white"/>
<path fill-rule="evenodd" clip-rule="evenodd" d="M46.1323 28.9484H48.2819V27.571H46.4662C45.0261 27.571 43.8574 28.6562 43.8574 29.971C43.8574 31.2858 45.0261 32.3711 46.4662 32.3711H48.2819V30.9936H46.1323C45.8192 30.9936 45.527 30.8475 45.3601 30.618H48.2819V29.3658H45.3601C45.527 29.0945 45.8192 28.9484 46.1323 28.9484Z" fill="white"/>
<path fill-rule="evenodd" clip-rule="evenodd" d="M37.5778 30.9728C37.0352 30.9728 36.5969 30.5345 36.5969 29.9919V29.9293C36.5969 29.3866 37.0352 28.9484 37.5778 28.9484H39.6231V27.571H37.7865C36.3465 27.571 35.1777 28.6562 35.1777 29.971C35.1777 31.2858 36.3465 32.3711 37.7865 32.3711H39.6231V30.9936H37.5778V30.9728Z" fill="white"/>
<path fill-rule="evenodd" clip-rule="evenodd" d="M53.2927 27.6544H48.6387V28.9067H50.35V32.2876H51.5813V28.9067H53.2927V27.6544Z" fill="white"/>
<path d="M42.2524 29.9502L44.5272 27.6544H42.6907L41.3967 28.9484V27.6544H40.1445V32.2876H41.3967V30.9728L42.7115 32.2876H44.569L42.2524 29.9502Z" fill="white"/>
<path d="M60.9278 49.9645C60.7191 50.0062 60.5521 50.1315 60.3851 50.361C60.2391 50.5697 60.1556 50.7784 60.1556 50.9871C60.1556 51.1124 60.1764 51.2376 60.2391 51.3628C60.3017 51.5089 60.406 51.5924 60.5104 51.5924C60.573 51.5924 60.6356 51.5715 60.7399 51.488L60.8652 51.8428C60.7399 51.9054 60.6356 51.9472 60.5312 51.9472C60.3851 51.9472 60.2391 51.8845 60.093 51.7802C60.0095 51.7176 59.9469 51.5924 59.8634 51.4045C59.8217 51.3211 59.8008 51.175 59.8008 51.008V50.8828C59.8008 50.6115 59.9469 50.2776 60.2391 49.9436C60.3017 49.881 60.406 49.7767 60.5521 49.6306H61.0112V49.9645C60.9904 49.9645 60.9486 49.9645 60.9278 49.9645Z" fill="white"/>
<path d="M62.9942 49.9645V51.9263H62.5977V51.6759C62.5977 51.5924 62.5351 51.488 62.389 51.3419C62.2846 51.2376 62.1803 51.1541 62.0759 51.0706C61.9507 50.9871 61.8255 50.9454 61.6794 50.9454C61.5333 50.9454 61.4289 51.008 61.3663 51.1332C61.3663 51.1541 61.3455 51.1541 61.3455 51.1958C61.3455 51.2376 61.3663 51.3002 61.4289 51.3419C61.4707 51.3837 61.5333 51.4045 61.575 51.4045C61.6168 51.4045 61.7211 51.3837 61.8672 51.3211L61.9924 51.6759C61.8255 51.7593 61.6794 51.8011 61.5542 51.8011C61.4289 51.8011 61.3037 51.7593 61.1994 51.6967C61.095 51.6341 61.0115 51.5298 60.9698 51.4045C60.9489 51.3628 60.9281 51.3002 60.9281 51.2167C60.9281 50.9871 61.0115 50.8202 61.1994 50.7158C61.3246 50.6324 61.4707 50.5906 61.6168 50.5906C61.6376 50.5906 61.6376 50.5906 61.6585 50.5906C61.6585 50.528 61.6168 50.4445 61.5542 50.361C61.4916 50.2776 61.4081 50.2358 61.3455 50.2358H60.9072V50.0063H60.7402V49.6723H63.2446V50.0063H62.9942V49.9645ZM62.5977 49.9645H61.6794C61.9298 50.1315 62.0759 50.361 62.0759 50.6324C62.2429 50.695 62.4098 50.8202 62.5977 51.0289V49.9645Z" fill="white"/>
<path d="M63.7454 49.9645V51.9263H63.3488V49.9645H63.0566V49.6306H63.9958V49.9645H63.7454Z" fill="white"/>
<path d="M65.6437 49.9645H63.8906V49.6306H66.3324V49.9645H66.0611V51.9263H65.7063C65.6646 51.8219 65.4976 51.6758 65.2054 51.4671C65.0802 51.3837 64.9133 51.3002 64.6837 51.2167C64.4541 51.1332 64.2663 51.0915 64.1202 51.0915L64.0158 50.695C64.0993 50.6323 64.3498 50.4863 64.7672 50.3193C64.9341 50.2358 65.2263 50.1106 65.6437 49.9645ZM65.6646 50.3819C65.602 50.4028 65.5185 50.4445 65.435 50.4654C65.3098 50.528 65.0802 50.6115 64.7672 50.7576L64.6837 50.7993C64.9967 50.9037 65.2889 51.0706 65.5602 51.2793C65.602 51.3002 65.6228 51.3211 65.6437 51.3419V50.3819H65.6646Z" fill="white"/>
<path d="M66.7928 49.9645V51.9263H66.3963V49.9645H66.125V49.6306H67.0642V49.9645H66.7928Z" fill="white"/>
<path d="M66.916 49.9645V49.6306H68.0639C68.0639 49.6097 68.0639 49.6097 68.0639 49.6097C68.0639 49.4219 67.9804 49.3175 67.8134 49.2549C67.7926 49.2549 67.7717 49.2549 67.73 49.2549C67.6882 49.2549 67.6465 49.2549 67.5839 49.2758C67.5004 49.2967 67.4586 49.3175 67.4378 49.3175C67.3752 49.3384 67.3125 49.3593 67.2708 49.3802C67.2082 49.4219 67.1247 49.4636 67.0412 49.5054L66.916 49.2132C67.0621 49.1088 67.2708 49.0254 67.5004 48.9419C67.6047 48.921 67.7091 48.9001 67.7926 48.9001C67.8969 48.9001 68.0013 48.9419 68.1265 49.0045C68.3352 49.1297 68.4395 49.3384 68.4395 49.6515H68.6691V49.9854H66.916V49.9645ZM68.2726 52.2394C68.1056 52.0933 67.9386 51.968 67.7717 51.8428C67.6882 51.7802 67.5421 51.7176 67.3543 51.655C67.1873 51.5924 67.1038 51.5715 67.083 51.5715V51.1124C67.1247 51.1124 67.1665 51.1124 67.2291 51.1124C67.2917 51.1124 67.3543 51.1124 67.3752 51.1124C67.5421 51.1124 67.6882 51.0915 67.8134 51.0498C68.0221 50.9663 68.1265 50.8619 68.1265 50.7367C68.1265 50.6532 68.0847 50.5697 68.0013 50.5071C67.9178 50.4654 67.8552 50.4237 67.7717 50.3819C67.7508 50.3611 67.73 50.361 67.7091 50.361C67.6673 50.361 67.6047 50.3819 67.563 50.4028C67.5004 50.4445 67.4586 50.4654 67.4586 50.5071C67.4795 50.6115 67.5839 50.6532 67.7717 50.6324L67.563 50.9663C67.4795 50.9663 67.396 50.9454 67.2917 50.8828C67.1247 50.7784 67.0412 50.6324 67.0412 50.4863C67.0412 50.3193 67.1247 50.215 67.2917 50.1315C67.4169 50.0689 67.5839 50.0271 67.7508 50.0271C67.8343 50.0271 67.8969 50.048 67.9387 50.0689C68.0013 50.0897 68.043 50.1106 68.1056 50.1523C68.3769 50.2776 68.5021 50.4863 68.5021 50.7576C68.5021 50.9454 68.4187 51.1124 68.2517 51.2376C68.1265 51.3211 67.9387 51.4046 67.7091 51.4463C67.7717 51.488 67.876 51.5298 68.0013 51.6133C68.2308 51.7802 68.3978 51.9263 68.5439 52.0724L68.2726 52.2394Z" fill="white"/>
<path d="M71.0285 49.9645V51.9263H70.6319V51.1541C70.6319 51.0915 70.6111 51.008 70.5484 50.9454C70.4858 50.8828 70.4232 50.841 70.3606 50.841C70.298 50.841 70.2354 50.8828 70.1937 50.9454C70.131 51.0289 70.1102 51.1124 70.1102 51.1958H69.6928C69.6928 51.0915 69.6719 50.9871 69.6093 50.9245C69.5467 50.841 69.4841 50.7993 69.4215 50.7993C69.3588 50.7993 69.2962 50.8202 69.2545 50.8619C69.1919 50.9037 69.171 50.9454 69.171 51.008L69.1502 51.1124V51.1541C69.1502 51.3628 69.2754 51.4463 69.5258 51.4463C69.5675 51.4463 69.6302 51.4463 69.7345 51.4254L69.5884 51.8219C69.5049 51.8219 69.4632 51.8428 69.4423 51.8428C69.2545 51.8428 69.0875 51.7802 68.9415 51.6341C68.8788 51.5924 68.8371 51.5089 68.7954 51.4045C68.7536 51.3002 68.7328 51.2167 68.7328 51.1332C68.7328 50.9245 68.7954 50.7576 68.9206 50.6115C69.0458 50.4863 69.2128 50.4236 69.4215 50.4236C69.6093 50.4236 69.7763 50.5071 69.9223 50.695C70.0684 50.5071 70.2145 50.4236 70.3815 50.4236C70.465 50.4236 70.5693 50.4654 70.6528 50.5489V49.9645H68.5449V49.6306H71.258V49.9645H71.0285Z" fill="white"/>
<path d="M73.9503 49.9645H72.1973V49.6306H74.6391V49.9645H74.3677V51.9263H74.013C73.9712 51.8219 73.8043 51.6758 73.5121 51.4671C73.3869 51.3837 73.2199 51.3002 72.9903 51.2167C72.7608 51.1332 72.5729 51.0915 72.4268 51.0915L72.3225 50.695C72.406 50.6323 72.6564 50.4863 73.0738 50.3193C73.2616 50.2358 73.5538 50.1106 73.9503 49.9645ZM73.9712 50.3819C73.9086 50.4028 73.8251 50.4445 73.7416 50.4654C73.6164 50.528 73.3869 50.6115 73.0738 50.7576L72.9903 50.7993C73.3034 50.9037 73.5956 51.0706 73.8669 51.2793C73.9086 51.3002 73.9295 51.3211 73.9503 51.3419V50.3819H73.9712Z" fill="white"/>
<path d="M75.2872 49.9645C75.162 50.1315 75.0994 50.2776 75.0994 50.3819C75.0994 50.4237 75.162 50.6324 75.2872 51.008C75.3498 51.1958 75.3915 51.3419 75.3915 51.4672C75.3915 51.6967 75.2663 51.8637 75.0159 51.9472C74.9324 51.968 74.8072 52.0098 74.5985 52.0306L74.6611 51.6967C74.8907 51.655 75.0159 51.5715 75.0159 51.4463C75.0159 51.3419 74.9741 51.175 74.8698 50.9663C74.7654 50.7367 74.7237 50.5906 74.7237 50.4863C74.7237 50.361 74.7863 50.1941 74.8907 50.0063H74.4941V49.6723H75.5794V50.0063H75.2872V49.9645Z" fill="white"/>
<path d="M76.1203 49.9645V51.9263H75.7238V49.9645H75.4316V49.6306H76.3708V49.9645H76.1203Z" fill="white"/>
<path d="M77.0173 50.8828C76.8295 50.8828 76.6834 50.8202 76.5791 50.7158C76.4747 50.5906 76.4121 50.4445 76.4121 50.2776C76.4121 50.1106 76.4747 49.9645 76.5791 49.8602C76.6834 49.7558 76.8295 49.6932 76.9965 49.6932C77.226 49.6932 77.393 49.8184 77.4974 50.048C77.5391 50.1523 77.56 50.2358 77.56 50.3402C77.56 50.5071 77.5182 50.6532 77.4139 50.7576C77.3304 50.8411 77.1843 50.8828 77.0173 50.8828ZM77.4347 52.135C76.9339 51.7176 76.5999 51.4672 76.433 51.3837V50.8411C77.1217 51.3211 77.56 51.7176 77.7687 52.0098V52.4063L77.4347 52.135ZM77.1008 50.0897C77.0591 50.0689 77.0173 50.048 76.9756 50.048C76.8295 50.0689 76.746 50.1523 76.746 50.2567C76.746 50.3193 76.7669 50.3819 76.8086 50.4237C76.8504 50.4863 76.913 50.5071 76.9756 50.5071H77.0382C77.1426 50.4654 77.2052 50.4028 77.2052 50.2984C77.226 50.2358 77.1843 50.1523 77.1008 50.0897Z" fill="white"/>
<path d="M80.2331 49.401C79.774 49.1089 79.3983 48.9628 79.127 48.9628C78.7931 48.9628 78.5427 49.0671 78.3757 49.2967C78.3131 49.3802 78.2922 49.4845 78.2922 49.6306H78.5635V49.9645H78.2922V51.9263H77.8957V49.9645H77.6035V49.6306H77.854C77.854 49.3593 77.9583 49.1297 78.1253 48.9628C78.2922 48.7958 78.5427 48.6915 78.8348 48.6497C78.8557 48.6497 78.9183 48.6497 79.0018 48.6288H79.0853C79.3149 48.6288 79.5653 48.6706 79.7949 48.7749C79.9201 48.8375 80.1288 48.9628 80.421 49.1297L80.2331 49.401Z" fill="white"/>
<path d="M79.8987 49.9645C80.0657 49.9854 80.2327 50.0271 80.3996 50.1315C80.6501 50.2567 80.7753 50.4445 80.7753 50.695C80.7753 50.8411 80.7335 50.9454 80.6501 51.0498C80.5666 51.1541 80.4622 51.2167 80.3161 51.2376C80.1909 51.2584 80.0657 51.2793 79.9822 51.2585V50.8828C80.024 50.8828 80.0657 50.8828 80.1074 50.8828C80.2953 50.8828 80.3996 50.8202 80.3996 50.6741C80.3996 50.5071 80.2327 50.4028 79.8987 50.361V51.9263H79.5439C79.4813 51.8219 79.4396 51.7385 79.377 51.6759C79.3561 51.655 79.3144 51.5924 79.2309 51.488C79.21 51.4463 79.1683 51.4045 79.0848 51.3628C79.0222 51.3002 78.9804 51.2584 78.9387 51.2376C78.9178 51.2167 78.897 51.1958 78.8552 51.175C78.6883 51.1124 78.5422 51.0915 78.4378 51.0915L78.3335 50.695C78.417 50.6324 78.6048 50.5071 78.9178 50.3402C78.9387 50.3193 79.0222 50.2776 79.1892 50.1732C79.2518 50.1315 79.3352 50.0897 79.4813 50.0062V49.9854H78.25V49.6515H80.9214V49.9854H79.8987V49.9645ZM79.5231 50.4236C79.4605 50.4654 79.3561 50.528 79.2309 50.6115C79.1891 50.6323 79.1683 50.6532 79.1265 50.695C79.0848 50.7367 79.0431 50.7784 79.0013 50.8202C79.0431 50.8619 79.1057 50.9037 79.21 50.9871C79.2935 51.0915 79.3978 51.1958 79.5439 51.3419V50.4236H79.5231Z" fill="white"/>
<path d="M81.5466 50.8828C81.3588 50.8828 81.2127 50.8202 81.1084 50.7158C81.004 50.5906 80.9414 50.4445 80.9414 50.2776C80.9414 50.1106 81.004 49.9645 81.1084 49.8602C81.2127 49.7558 81.3588 49.6932 81.5258 49.6932C81.7553 49.6932 81.9223 49.8184 82.0267 50.048C82.0684 50.1523 82.0893 50.2358 82.0893 50.3402C82.0893 50.5071 82.0475 50.6532 81.9432 50.7576C81.8597 50.8411 81.7136 50.8828 81.5466 50.8828ZM81.964 52.135C81.4632 51.7176 81.1292 51.4672 80.9623 51.3837V50.8411C81.651 51.3211 82.0893 51.7176 82.298 52.0098V52.4063L81.964 52.135ZM81.6301 50.0897C81.5884 50.0689 81.5466 50.048 81.5049 50.048C81.3588 50.0689 81.2753 50.1523 81.2753 50.2567C81.2753 50.3193 81.2962 50.3819 81.3379 50.4237C81.3797 50.4863 81.4423 50.5071 81.5049 50.5071H81.5675C81.6719 50.4654 81.7345 50.4028 81.7345 50.2984C81.7553 50.2358 81.7136 50.1523 81.6301 50.0897Z" fill="white"/>
<path d="M38.3906 52.0724L39.1211 52.3228L39.4133 52.0724L38.6828 51.822L38.3906 52.0724Z" fill="white"/>
<path d="M38.6422 50.0689V49.6306H32.9238V50.0689H33.8838V51.0498C33.8838 51.0498 34.6143 51.0498 34.6978 51.0498C34.6978 51.0498 34.9274 50.9663 34.99 50.8619C34.99 51.008 34.99 51.1959 34.99 51.2585C34.99 51.4254 34.8647 51.5715 34.6978 51.5715C34.5308 51.5715 33.5499 51.5715 33.4873 51.5715C33.4247 51.5715 33.3412 51.5298 33.3412 51.2585C33.3412 50.9663 33.3412 50.3402 33.3412 50.3402H32.9238C32.9238 50.3402 32.9238 51.4254 32.9238 51.5089C32.9238 51.6133 32.9864 51.9472 33.2995 51.9472C33.6125 51.9472 34.8856 51.9472 34.9482 51.9472C35.1987 51.9472 35.3865 51.6759 35.4074 51.4672C35.4074 50.9872 35.4074 50.3402 35.4074 50.3402H35.0108C34.9691 50.5072 34.99 50.6324 34.823 50.6741C34.6352 50.6741 34.343 50.6741 34.343 50.6741V50.0689H35.7413V51.9472H36.2213V50.0689H36.5552V51.9472C36.5552 51.9472 38.037 51.9472 38.1622 51.9472C38.2666 51.9472 38.6422 51.8428 38.6422 51.4463C38.6422 51.0289 38.6422 50.3402 38.6422 50.3402H38.2457C38.2457 50.4445 38.2248 50.6115 38.0579 50.6115C37.87 50.6115 36.9935 50.6115 36.9935 50.6115V50.0898H38.6422V50.0689ZM38.0161 50.9872C38.0787 51.008 38.1831 50.8828 38.2666 50.7993C38.2666 50.9037 38.2666 51.0706 38.2666 51.2585C38.2666 51.4254 38.1205 51.5715 38.0161 51.5715C37.9118 51.5715 36.9935 51.5715 36.9935 51.5715V50.9872C36.9935 50.9872 37.9326 50.9872 38.0161 50.9872Z" fill="white"/>
<path d="M40.1436 50.5906H39.1836V51.1124H40.1436V50.5906Z" fill="white"/>
<path d="M40.6875 49.6306V50.0689H42.2945V50.3402H40.6875C40.6875 50.3402 40.6875 51.3211 40.6875 51.3837C40.7292 51.7176 40.8962 51.9472 41.2301 51.9472C41.6266 51.9472 42.6702 51.9472 42.6702 51.9472V50.0689H43.0041V51.9472H43.4423V49.6306H40.6875ZM42.2736 51.6341C42.2736 51.6341 41.3345 51.6341 41.3136 51.6341C41.1675 51.6133 41.0632 51.4463 41.0632 51.2376C41.0632 51.0498 41.0632 50.7159 41.0632 50.7159H42.2736V51.6341Z" fill="white"/>
<path d="M45.5293 50.0689H47.512V50.3402C47.4285 50.3402 46.9902 50.3402 46.9276 50.3402C46.9067 50.528 46.6145 50.6324 46.5311 50.3402C46.218 50.3402 45.5293 50.3402 45.5293 50.3402C45.5293 50.3402 45.5293 51.342 45.5293 51.4463C45.5293 51.5507 45.5502 51.9055 45.8423 51.9472C46.1137 51.9472 46.6354 51.9472 46.6354 51.9472V51.5715C46.6354 51.5715 46.1971 51.5715 46.0928 51.5715C45.9884 51.5298 45.905 51.4672 45.905 51.3211C45.905 51.1333 45.905 50.7367 45.905 50.7367H46.4476V51.0707H46.9276V50.8202C46.8858 50.695 47.4285 50.7159 47.4702 50.8202C47.4702 50.9872 47.4702 51.9681 47.4702 51.9681H47.9085V50.0898H48.2007V51.9681H48.6389V49.6515H45.5502V50.0689H45.5293Z" fill="white"/>
<path d="M44.841 49.7558C44.6532 49.7558 43.8184 49.7558 43.8184 49.7558C43.8184 49.7558 43.8184 50.2567 43.8184 50.3611C43.8601 50.5489 43.9644 50.7993 44.3192 50.8202C44.674 50.8202 45.1332 50.8202 45.1332 50.8202V50.0689C45.1123 49.9437 45.0288 49.7767 44.841 49.7558ZM44.5279 50.4028C44.3401 50.4028 44.194 50.3402 44.194 50.2567C44.194 50.1732 44.3401 50.1106 44.5279 50.1106C44.7158 50.1106 44.8619 50.1732 44.8619 50.2567C44.8619 50.3402 44.7158 50.4028 44.5279 50.4028Z" fill="white"/>
<path d="M43.8809 51.0498V51.4254L45.1331 51.9472V51.5298L43.8809 51.0498Z" fill="white"/>
<path d="M55.2961 49.7558C55.1082 49.7558 54.2734 49.7558 54.2734 49.7558C54.2734 49.7558 54.2734 50.2567 54.2734 50.3611C54.3152 50.5489 54.4195 50.7993 54.7743 50.8202C55.1291 50.8202 55.5883 50.8202 55.5883 50.8202V50.0689C55.5674 49.9437 55.463 49.7767 55.2961 49.7558ZM54.983 50.4028C54.7952 50.4028 54.6491 50.3402 54.6491 50.2567C54.6491 50.1732 54.7952 50.1106 54.983 50.1106C55.1709 50.1106 55.3169 50.1732 55.3169 50.2567C55.3169 50.3402 55.1709 50.4028 54.983 50.4028Z" fill="white"/>
<path d="M54.3359 51.0498V51.4254L55.5673 51.9472V51.5298L54.3359 51.0498Z" fill="white"/>
<path d="M57.9469 50.3193V50.048H58.7399V49.6097H55.9434V50.048H57.5504V50.3193H55.9434C55.9434 50.3193 55.9434 51.3002 55.9434 51.3628C55.9851 51.6967 56.1521 51.9263 56.486 51.9263C56.8825 51.9263 57.926 51.9263 57.926 51.9263V50.7785H58.3225C58.3852 50.7785 58.406 50.7367 58.4269 50.8411C58.4269 50.9663 58.4269 51.0289 58.4269 51.0289C58.406 51.1333 58.3852 51.1959 58.3225 51.2167C58.2599 51.2167 58.1765 51.2167 58.1765 51.2167V51.6133H58.4686C58.573 51.5924 58.7399 51.488 58.7608 51.3628C58.7608 51.1541 58.7608 50.3193 58.7608 50.3193H57.9469ZM57.5504 51.6341C57.5504 51.6341 56.6112 51.6341 56.5903 51.6341C56.4442 51.6133 56.3399 51.4463 56.3399 51.2376C56.3399 51.0498 56.3399 50.7159 56.3399 50.7159H57.5504V50.7785V51.6341Z" fill="white"/>
<path d="M49.9316 49.6306V50.0689H51.5386V50.3402H49.9316C49.9316 50.3402 49.9316 51.3211 49.9316 51.3837C49.9734 51.7176 50.1403 51.9472 50.4743 51.9472C50.8708 51.9472 51.9143 51.9472 51.9143 51.9472V50.0689H52.4152L52.2273 50.4445V50.695C52.2273 50.695 52.4987 50.695 52.5613 50.695C52.7491 50.7159 52.8117 50.8411 52.8117 51.1541C52.8117 51.3628 52.77 51.5298 52.603 51.5507C52.4987 51.5507 52.29 51.5507 52.29 51.5507V51.9472C52.29 51.9472 52.5404 51.9472 52.6239 51.9472C52.7282 51.9472 53.1665 51.9889 53.2082 51.5507C53.25 50.6741 53.2917 50.4445 52.6656 50.3819L52.7491 50.0689H53.4378V51.9472H53.8761V49.6306H49.9316ZM51.5386 51.6341C51.5386 51.6341 50.5995 51.6341 50.5786 51.6341C50.4325 51.6133 50.3282 51.4463 50.3282 51.2376C50.3282 51.0498 50.3282 50.7159 50.3282 50.7159H51.5386V51.6341Z" fill="white"/>
</svg>
