<svg width="41" height="42" viewBox="0 0 41 42" fill="none" xmlns="http://www.w3.org/2000/svg">
<path d="M0 10.3235V25.5573C0 25.6752 0.0445041 25.7872 0.122386 25.8697L12.7421 39.1264C12.9062 39.2973 13.1704 39.2973 13.3318 39.1205L21.5873 30.1511C21.7625 29.9595 21.7375 29.6531 21.54 29.491C20.7333 28.8398 18.7307 27.561 17.0979 29.3172C15.4846 31.0468 13.9548 32.7234 13.3318 33.4071C13.1704 33.5838 12.9034 33.5838 12.7393 33.41L5.71043 25.9551C5.5491 25.7842 5.5491 25.5072 5.70765 25.3334L7.51563 23.3945C7.67696 23.2236 7.93564 23.2207 8.09974 23.3886L12.7421 28.1503C12.9062 28.3183 13.1676 28.3153 13.329 28.1415L15.2927 26.0199C15.4513 25.8461 15.4513 25.5691 15.2899 25.4012L0.709284 10.0111C0.447822 9.73708 0 9.93155 0 10.3235Z" fill="#fff"/>
<path d="M13.4013 1.00929C13.2372 0.838384 12.9729 0.838382 12.8116 1.01518L4.55611 9.98461C4.38087 10.1761 4.40591 10.4826 4.60339 10.6446C5.41003 11.2958 7.41271 12.5717 9.04824 10.8185C9.62123 10.2027 10.1831 9.59564 10.6977 9.03579C11.2095 8.48183 11.674 7.97502 12.055 7.55955C12.3721 7.2148 12.6308 6.92898 12.8144 6.72862C12.9757 6.55182 13.2428 6.54888 13.4069 6.72272L20.7306 14.4899L18.6333 16.7382C18.472 16.9091 18.2133 16.912 18.0492 16.7441L13.4069 11.9824C13.2428 11.8144 12.9813 11.8174 12.8227 11.9912L11.7407 13.1581L10.859 14.1128C10.7005 14.2866 10.7005 14.5636 10.8618 14.7345L10.9007 14.7758L25.4397 30.1246C25.7011 30.4015 26.1489 30.2041 26.1489 29.8122V14.3986L13.4013 1.00929Z" fill="#fff"/>
<path d="M40.432 7.55956H22.7527C22.469 7.55956 22.3272 7.92493 22.5302 8.13709L27.3144 13.164H40.432C40.6573 13.164 40.8409 12.9695 40.8409 12.7308V7.98976C40.8409 7.75403 40.6573 7.55956 40.432 7.55956ZM34.2264 11.3872H33.5172V9.41001H34.2264V11.3872ZM35.2778 11.3872H34.5686V9.41001H35.2778V11.3872ZM36.3265 11.3872H35.62V9.41001H36.3265V11.3872ZM38.3097 11.5758C37.6783 11.5758 37.1665 11.0336 37.1665 10.3618C37.1665 9.68994 37.6783 9.14777 38.3097 9.14777C38.9439 9.14777 39.4584 9.68994 39.4584 10.3618C39.4584 11.0336 38.9439 11.5758 38.3097 11.5758Z" fill="#fff"/>
<path d="M40.432 14.7139H27.7733V20.3183H40.4292C40.6545 20.3183 40.8381 20.1238 40.8381 19.8851V15.147C40.8409 14.9084 40.6573 14.7139 40.432 14.7139ZM34.2236 18.5444H33.5171V16.5673H34.2236V18.5444ZM35.2751 18.5444H34.5658V16.5673H35.2751V18.5444ZM36.3265 18.5444H35.62V16.5673H36.3265V18.5444ZM38.3097 18.7301C37.6755 18.7301 37.1665 18.1879 37.1665 17.5161C37.1665 16.8443 37.6783 16.3021 38.3097 16.3021C38.9439 16.3021 39.4557 16.8443 39.4557 17.5161C39.4557 18.1879 38.9439 18.7301 38.3097 18.7301Z" fill="#fff"/>
<path d="M40.432 21.8711H27.7733V27.4755H40.432C40.6573 27.4755 40.8409 27.281 40.8409 27.0423V22.3042C40.8409 22.0655 40.6573 21.8711 40.432 21.8711ZM34.2236 25.7016H33.5171V23.7215H34.2236V25.7016ZM35.2751 25.7016H34.5658V23.7215H35.2751V25.7016ZM36.3265 25.7016H35.62V23.7215H36.3265V25.7016ZM38.3097 25.8873C37.6755 25.8873 37.1665 25.3451 37.1665 24.6733C37.1665 24.0044 37.6783 23.4593 38.3097 23.4593C38.9439 23.4593 39.4557 24.0015 39.4557 24.6733C39.4557 25.3451 38.9439 25.8873 38.3097 25.8873Z" fill="#fff"/>
<path d="M31.3698 32.1547H31.4366V32.084C31.4143 32.1075 31.3921 32.1311 31.3698 32.1547Z" fill="#fff"/>
<path d="M31.3698 32.1547C30.9192 32.6143 30.3073 32.9002 29.6314 32.9002C28.9193 32.9002 28.2796 32.5878 27.8206 32.084V37.6324C27.8206 38.6814 28.6328 39.5329 29.6314 39.5329C30.6272 39.5329 31.4366 38.6814 31.4366 37.6324V32.1547H31.3698Z" fill="#fff"/>
<path d="M39.0913 28.3241H31.3698C31.8427 28.8073 32.1403 29.485 32.1403 30.2364C32.1403 30.9554 31.8705 31.6037 31.4366 32.084V32.1547L33.8927 32.1546V37.6323C33.8927 38.6813 34.7048 39.5329 35.7034 39.5329C36.702 39.5329 37.5086 38.6813 37.5086 37.6323V32.1546H39.0913C40.0843 32.1546 40.8854 31.2972 40.8854 30.2364C40.8854 29.1815 40.0843 28.3241 39.0913 28.3241Z" fill="#fff"/>
<path d="M31.2975 30.1923C31.2975 31.2236 30.5103 32.0574 29.5368 32.0574C28.5633 32.0574 27.7733 31.2236 27.7733 30.1923C27.7733 29.1609 28.5633 28.3212 29.5368 28.3212C30.5103 28.3212 31.2975 29.158 31.2975 30.1923Z" fill="#fff"/>
<path d="M40.8158 40.6998C40.8158 40.9326 40.6378 41.1182 40.4208 41.1182H0.394974C0.178016 41.1182 0 40.9326 0 40.6998C0 40.47 0.178016 40.2814 0.394974 40.2814H40.4208C40.6378 40.2814 40.8158 40.467 40.8158 40.6998Z" fill="#fff"/>
</svg>
