<svg width="40" height="40" viewBox="0 0 40 40" fill="none" xmlns="http://www.w3.org/2000/svg">
<path d="M39.9976 20.0632C40.0911 30.9731 30.9486 40.0465 19.8904 39.9998C9.05027 39.9376 -0.123345 30.9264 0.00125456 19.7363C0.125854 8.90422 9.17487 -0.153657 20.3265 0.00197622C31.0888 0.15761 40.1689 9.13767 39.9976 20.0632ZM10.3274 29.9148C11.5734 29.5257 12.6637 29.1833 13.7383 28.8253C14.081 28.7164 14.3613 28.7319 14.6884 28.9187C16.8689 30.2105 19.2051 30.6462 21.7127 30.2572C26.2294 29.5568 29.9985 25.8216 30.4035 20.8258C30.5904 18.4913 30.0608 16.2813 28.737 14.3203C26.8524 11.4877 24.1735 9.91584 20.7938 9.62014C18.5198 9.41781 16.3549 9.96253 14.4236 11.2076C11.5423 13.0908 9.92247 15.7677 9.62655 19.176C9.42407 21.5105 9.9692 23.705 11.2931 25.666C11.5267 25.9928 11.5578 26.2885 11.4021 26.6776C11.0439 27.6892 10.7168 28.7319 10.3274 29.9148Z" fill="#B9FD50"/>
<path d="M23.3013 25.9461C22.4758 25.9772 21.8061 25.7127 21.152 25.3858C18.9715 24.312 17.2427 22.6934 15.7786 20.7635C15.031 19.7674 14.4236 18.678 14.1433 17.4485C13.9408 16.577 14.0965 15.8144 14.7818 15.1763C15.0466 14.9272 15.2802 14.6471 15.5606 14.4137C16.1369 13.9156 16.7599 13.8845 17.3206 14.3825C17.8812 14.8806 18.4108 15.4097 18.9248 15.97C19.5166 16.6236 19.4232 17.3396 18.6911 17.822C18.3485 18.0555 17.928 18.18 17.8812 18.678C17.8189 19.2072 18.0058 19.6429 18.2862 20.0632C18.8313 20.8724 19.5166 21.5261 20.4044 21.9463C21.1987 22.3198 21.6192 22.1798 22.0865 21.4172C22.616 20.5456 23.3948 20.4367 24.1424 21.1526C24.6096 21.6039 25.0613 22.0708 25.513 22.5377C26.1827 23.2536 26.1671 23.8606 25.4818 24.5765C25.2482 24.8255 24.999 25.0434 24.7654 25.2924C24.3293 25.7749 23.8464 26.0084 23.3013 25.9461Z" fill="#B9FD50"/>
</svg>
